Pacifico-Lightl.ufo
<glyph name="exclam" format="1">
  <advance width="1132"/>
  <unicode hex="0021"/>
  <outline>
    <contour>
      <point x="578" y="28" type="curve"/>
      <point x="675.391" y="28"/>
      <point x="729" y="95.3475"/>
      <point x="729" y="191" type="curve"/>
      <point x="729" y="278.575"/>
      <point x="684.575" y="323"/>
      <point x="597" y="323" type="curve"/>
      <point x="497.679" y="323"/>
      <point x="444" y="261.793"/>
      <point x="444" y="162" type="curve"/>
      <point x="444" y="71.5777"/>
      <point x="488.272" y="28"/>
    </contour>
    <contour>
      <point x="642" y="492" type="curve" smooth="yes"/>
      <point x="675" y="492"/>
      <point x="694" y="504"/>
      <point x="716" y="562" type="curve" smooth="yes"/>
      <point x="1095" y="1540" type="line" smooth="yes"/>
      <point x="1160" y="1709"/>
      <point x="1239" y="1875"/>
      <point x="1049" y="1896" type="curve" smooth="yes"/>
      <point x="957" y="1906"/>
      <point x="896" y="1844"/>
      <point x="876" y="1758" type="curve" smooth="yes"/>
      <point x="599" y="561"/>
      <point x="596" y="551"/>
      <point x="596" y="537" type="curve" smooth="yes"/>
      <point x="596" y="505"/>
      <point x="617" y="492"/>
    </contour>
  </outline>
</glyph>
<glyph name="percent" format="1">
  <advance width="2208"/>
  <unicode hex="0025"/>
  <outline>
    <contour>
      <point x="1687" y="129" type="curve"/>
      <point x="1569" y="129"/>
      <point x="1543" y="289"/>
      <point x="1543" y="392" type="curve"/>
      <point x="1543" y="571"/>
      <point x="1592" y="851"/>
      <point x="1782" y="851" type="curve"/>
      <point x="1909" y="851"/>
      <point x="1925" y="664"/>
      <point x="1925" y="554" type="curve"/>
      <point x="1925" y="400"/>
      <point x="1853" y="129"/>
    </contour>
    <contour>
      <point x="1669" y="-13" type="curve"/>
      <point x="1891" y="-13"/>
      <point x="2121" y="220"/>
      <point x="2121" y="572" type="curve"/>
      <point x="2121" y="807"/>
      <point x="2031" y="993"/>
      <point x="1808" y="993" type="curve"/>
      <point x="1494" y="993"/>
      <point x="1337" y="703"/>
      <point x="1337" y="380" type="curve"/>
      <point x="1337" y="156"/>
      <point x="1450" y="-13"/>
    </contour>
    <contour>
      <point x="761" y="45" type="curve"/>
      <point x="1285" y="878"/>
      <point x="1638" y="1612"/>
      <point x="1638" y="1689" type="curve"/>
      <point x="1638" y="1750"/>
      <point x="1575" y="1798"/>
      <point x="1503" y="1678" type="curve"/>
      <point x="659" y="274" type="line"/>
      <point x="613" y="197"/>
      <point x="566" y="122"/>
      <point x="588" y="55" type="curve"/>
      <point x="614" y="-29"/>
      <point x="716" y="-34"/>
    </contour>
    <contour>
      <point x="473" y="874" type="curve"/>
      <point x="348" y="874"/>
      <point x="325" y="1065"/>
      <point x="325" y="1176" type="curve"/>
      <point x="325" y="1348"/>
      <point x="385" y="1596"/>
      <point x="568" y="1596" type="curve"/>
      <point x="696" y="1596"/>
      <point x="731" y="1463"/>
      <point x="731" y="1349" type="curve"/>
      <point x="731" y="1181"/>
      <point x="652" y="874"/>
    </contour>
    <contour>
      <point x="455" y="732" type="curve"/>
      <point x="503" y="732"/>
      <point x="545" y="740"/>
      <point x="586" y="757" type="curve"/>
      <point x="783" y="838"/>
      <point x="925" y="1067"/>
      <point x="925" y="1347" type="curve"/>
      <point x="925" y="1578"/>
      <point x="819" y="1738"/>
      <point x="594" y="1738" type="curve"/>
      <point x="286" y="1738"/>
      <point x="119" y="1470"/>
      <point x="119" y="1155" type="curve"/>
      <point x="119" y="923"/>
      <point x="231" y="732"/>
    </contour>
  </outline>
</glyph>
<glyph name="nine" format="1">
  <advance width="1209"/>
  <unicode hex="0039"/>
  <outline>
    <contour>
      <point x="559" y="625" type="curve"/>
      <point x="411" y="625"/>
      <point x="361" y="748"/>
      <point x="361" y="890" type="curve"/>
      <point x="361" y="1065"/>
      <point x="464" y="1294"/>
      <point x="653" y="1294" type="curve"/>
      <point x="818" y="1294"/>
      <point x="907" y="1167"/>
      <point x="907" y="970" type="curve"/>
      <point x="907" y="781"/>
      <point x="806" y="614"/>
    </contour>
    <contour>
      <point x="273" y="-126" type="curve"/>
      <point x="301" y="-126"/>
      <point x="320" y="-117"/>
      <point x="349" y="-104" type="curve"/>
      <point x="695" y="64"/>
      <point x="1097" y="429"/>
      <point x="1097" y="932" type="curve"/>
      <point x="1097" y="1233"/>
      <point x="929" y="1421"/>
      <point x="658" y="1421" type="curve"/>
      <point x="364" y="1421"/>
      <point x="126" y="1204"/>
      <point x="126" y="909" type="curve"/>
      <point x="126" y="684"/>
      <point x="293" y="504"/>
      <point x="464" y="504" type="curve"/>
      <point x="564" y="504"/>
      <point x="734" y="511"/>
      <point x="865" y="637" type="curve"/>
      <point x="745" y="371"/>
      <point x="513" y="165"/>
      <point x="252" y="12" type="curve"/>
      <point x="217" y="-10"/>
      <point x="196" y="-35"/>
      <point x="196" y="-71" type="curve"/>
      <point x="196" y="-103"/>
      <point x="225" y="-126"/>
    </contour>
  </outline>
</glyph>
<glyph name="colon" format="1">
  <advance width="704"/>
  <unicode hex="003A"/>
  <outline>
    <contour>
      <point x="484" y="0" type="curve"/>
      <point x="586" y="0"/>
      <point x="642" y="62"/>
      <point x="642" y="161" type="curve"/>
      <point x="642" y="250"/>
      <point x="595" y="293"/>
      <point x="503" y="293" type="curve"/>
      <point x="404" y="293"/>
      <point x="350" y="232"/>
      <point x="350" y="132" type="curve"/>
      <point x="350" y="42"/>
      <point x="394" y="0"/>
    </contour>
    <contour>
      <point x="544" y="668" type="curve"/>
      <point x="646" y="668"/>
      <point x="702" y="730"/>
      <point x="702" y="829" type="curve"/>
      <point x="702" y="918"/>
      <point x="655" y="961"/>
      <point x="563" y="961" type="curve"/>
      <point x="464" y="961"/>
      <point x="410" y="900"/>
      <point x="410" y="800" type="curve"/>
      <point x="410" y="710"/>
      <point x="454" y="668"/>
    </contour>
  </outline>
</glyph>
<glyph name="greater" format="1">
  <advance width="1184"/>
  <unicode hex="003E"/>
  <outline>
    <contour>
      <point x="266" y="136" type="curve"/>
      <point x="377.844" y="136"/>
      <point x="481.525" y="196.877"/>
      <point x="578.358" y="237.649" type="curve"/>
      <point x="788.255" y="326.184"/>
      <point x="1104" y="441.158"/>
      <point x="1104" y="626" type="curve"/>
      <point x="1104" y="759"/>
      <point x="884" y="811"/>
      <point x="598.613" y="929.245" type="curve"/>
      <point x="494.305" y="972.194"/>
      <point x="360.47" y="1055"/>
      <point x="248" y="1055" type="curve"/>
      <point x="193.221" y="1055"/>
      <point x="168" y="990.863"/>
      <point x="168" y="922" type="curve"/>
      <point x="168" y="884.772"/>
      <point x="176.68" y="877.323"/>
      <point x="225.796" y="860.356" type="curve"/>
      <point x="284.119" y="840.208"/>
      <point x="923.803" y="683.135"/>
      <point x="977.942" y="616.508" type="curve"/>
      <point x="980.535" y="493.057"/>
      <point x="359.769" y="352.882"/>
      <point x="248.549" y="323.965" type="curve"/>
      <point x="193.684" y="309.715"/>
      <point x="193" y="259.795"/>
      <point x="193" y="185" type="curve"/>
      <point x="193" y="153.676"/>
      <point x="221.738" y="136"/>
    </contour>
  </outline>
</glyph>
<glyph name="A" format="1">
  <advance width="1839.650"/>
  <unicode hex="0041"/>
  <outline>
    <contour>
      <point x="812" y="-135" type="curve"/>
      <point x="1065" y="-135"/>
      <point x="1286" y="0"/>
      <point x="1381" y="149" type="curve"/>
      <point x="1373" y="122"/>
      <point x="1375" y="113"/>
      <point x="1375" y="90" type="curve"/>
      <point x="1375" y="-28"/>
      <point x="1419.27" y="-106"/>
      <point x="1531.22" y="-120" type="curve"/>
      <point x="1667" y="-138"/>
      <point x="1815.42" y="-64"/>
      <point x="1903.51" y="38.8938" type="curve"/>
      <point x="1935.42" y="76.4606"/>
      <point x="1877.13" y="154.527"/>
      <point x="1858.51" y="138.05" type="curve"/>
      <point x="1797.79" y="84.2956"/>
      <point x="1712.59" y="6"/>
      <point x="1646" y="6" type="curve"/>
      <point x="1478" y="0"/>
      <point x="1535.52" y="156.895"/>
      <point x="1605.93" y="480.565" type="curve"/>
      <point x="1809" y="1406" type="line"/>
      <point x="1825" y="1481"/>
      <point x="1670" y="1522"/>
      <point x="1654" y="1450" type="curve"/>
      <point x="1467.02" y="625.19" type="line"/>
      <point x="1394.24" y="302.895"/>
      <point x="1174.97" y="9"/>
      <point x="849" y="9" type="curve"/>
      <point x="642.93" y="9"/>
      <point x="473.444" y="132.477"/>
      <point x="422.071" y="347.805" type="curve"/>
      <point x="244.578" y="1099.3"/>
      <point x="978" y="1836"/>
      <point x="1600" y="1774" type="curve"/>
      <point x="1878" y="1746"/>
      <point x="2071" y="1570"/>
      <point x="2072" y="1575" type="curve"/>
      <point x="2154" y="1506"/>
      <point x="2234" y="1591"/>
      <point x="2161" y="1666" type="curve"/>
      <point x="2041" y="1791"/>
      <point x="1832" y="1903"/>
      <point x="1582" y="1918" type="curve"/>
      <point x="790" y="1967"/>
      <point x="47.6389" y="1118.95"/>
      <point x="213.081" y="357.524" type="curve"/>
      <point x="275.031" y="73.5093"/>
      <point x="459.136" y="-135"/>
    </contour>
    <contour>
      <point x="1475" y="1718" type="move" name="top"/>
    </contour>
  </outline>
</glyph>
<glyph name="J" format="1">
  <advance width="1362"/>
  <unicode hex="004A"/>
  <outline>
    <contour>
      <point x="274" y="-754" type="curve"/>
      <point x="849" y="-777"/>
      <point x="1191.17" y="280.338"/>
      <point x="1206.01" y="1087.55" type="curve"/>
      <point x="1220.48" y="1875"/>
      <point x="969" y="1987"/>
      <point x="793" y="1987" type="curve"/>
      <point x="629" y="1987"/>
      <point x="251.643" y="1811.18"/>
      <point x="243.997" y="1284.55" type="curve"/>
      <point x="234.372" y="635.876"/>
      <point x="1366.76" y="328.109"/>
      <point x="1471.5" y="329.996" type="curve"/>
      <point x="1518.63" y="330.781"/>
      <point x="1559.51" y="359.689"/>
      <point x="1559.01" y="380.269" type="curve"/>
      <point x="1558.74" y="386.344"/>
      <point x="1545" y="394"/>
      <point x="1525.66" y="400.84" type="curve" smooth="yes"/>
      <point x="886.054" y="635.796"/>
      <point x="440.128" y="900.856"/>
      <point x="437.003" y="1316.6" type="curve"/>
      <point x="433.814" y="1555.74"/>
      <point x="629" y="1851"/>
      <point x="800" y="1832" type="curve"/>
      <point x="975" y="1812"/>
      <point x="1011" y="1614.42"/>
      <point x="1011" y="1311" type="curve"/>
      <point x="1011" y="-55"/>
      <point x="521" y="-587"/>
      <point x="294" y="-586" type="curve"/>
      <point x="210" y="-585"/>
      <point x="104" y="-505"/>
      <point x="105" y="-346" type="curve"/>
      <point x="110" y="327"/>
      <point x="763" y="518"/>
      <point x="999" y="500" type="curve"/>
      <point x="1000" y="500"/>
      <point x="973" y="558"/>
      <point x="962" y="577" type="curve"/>
      <point x="962" y="577"/>
      <point x="936" y="601"/>
      <point x="910" y="600" type="curve"/>
      <point x="195" y="601"/>
      <point x="-81" y="-23"/>
      <point x="-72" y="-347" type="curve"/>
      <point x="-65" y="-543"/>
      <point x="-13" y="-731"/>
    </contour>
  </outline>
</glyph>
<glyph name="M" format="1">
  <advance width="2282.260"/>
  <unicode hex="004D"/>
  <outline>
    <contour>
      <point x="2068" y="-97" type="curve"/>
      <point x="2284" y="-72"/>
      <point x="2409" y="64"/>
      <point x="2473" y="186" type="curve"/>
      <point x="2484" y="211"/>
      <point x="2483" y="230"/>
      <point x="2481" y="240" type="curve"/>
      <point x="2478" y="252"/>
      <point x="2467" y="265"/>
      <point x="2450" y="265" type="curve" smooth="yes"/>
      <point x="2420" y="265"/>
      <point x="2400" y="247"/>
      <point x="2360" y="206" type="curve" smooth="yes"/>
      <point x="2307" y="151"/>
      <point x="2214" y="47"/>
      <point x="2094" y="47" type="curve" smooth="yes"/>
      <point x="2002" y="47"/>
      <point x="1970" y="116"/>
      <point x="1970" y="199" type="curve" smooth="yes"/>
      <point x="1970" y="565"/>
      <point x="2205" y="1037"/>
      <point x="2205" y="1422" type="curve" smooth="yes"/>
      <point x="2205" y="1655"/>
      <point x="2045" y="1734"/>
      <point x="1930" y="1734" type="curve" smooth="yes"/>
      <point x="1702" y="1738"/>
      <point x="1524" y="1500"/>
      <point x="1416" y="1088" type="curve"/>
      <point x="1425" y="1132"/>
      <point x="1441" y="1247"/>
      <point x="1442.8" y="1349.48" type="curve" smooth="yes"/>
      <point x="1446" y="1556"/>
      <point x="1376.33" y="1730"/>
      <point x="1219" y="1730" type="curve" smooth="yes"/>
      <point x="883" y="1723"/>
      <point x="733" y="1272"/>
      <point x="605" y="920" type="curve"/>
      <point x="637" y="1033"/>
      <point x="669" y="1325"/>
      <point x="669" y="1418" type="curve" smooth="yes"/>
      <point x="669" y="1629"/>
      <point x="583" y="1703"/>
      <point x="468" y="1703" type="curve" smooth="yes"/>
      <point x="238" y="1703"/>
      <point x="55" y="1529"/>
      <point x="-21" y="1339" type="curve" smooth="yes"/>
      <point x="-25" y="1329"/>
      <point x="-26" y="1322"/>
      <point x="-26" y="1312" type="curve" smooth="yes"/>
      <point x="-26" y="1274"/>
      <point x="23" y="1227"/>
      <point x="53" y="1212" type="curve"/>
      <point x="65" y="1204"/>
      <point x="73" y="1214"/>
      <point x="73" y="1214" type="curve"/>
      <point x="139" y="1370"/>
      <point x="299" y="1592"/>
      <point x="415" y="1592" type="curve" smooth="yes"/>
      <point x="485" y="1592"/>
      <point x="524" y="1538"/>
      <point x="524" y="1400" type="curve" smooth="yes"/>
      <point x="524" y="1280.83"/>
      <point x="483.524" y="1010.76"/>
      <point x="418.65" y="696.838" type="curve" smooth="yes"/>
      <point x="374.651" y="483.929"/>
      <point x="319.429" y="250.85"/>
      <point x="258" y="31" type="curve"/>
      <point x="247" y="-17"/>
      <point x="207" y="-68"/>
      <point x="383" y="-68" type="curve" smooth="yes"/>
      <point x="478" y="-68"/>
      <point x="500" y="62"/>
      <point x="529" y="204" type="curve" smooth="yes"/>
      <point x="588" y="500"/>
      <point x="933" y="1546"/>
      <point x="1165" y="1560" type="curve" smooth="yes"/>
      <point x="1247" y="1565"/>
      <point x="1280" y="1482"/>
      <point x="1285" y="1360" type="curve" smooth="yes"/>
      <point x="1293" y="1177"/>
      <point x="1238" y="905"/>
      <point x="1192.07" y="706.43" type="curve" smooth="yes"/>
      <point x="1036" y="-23" type="line"/>
      <point x="1021" y="-64"/>
      <point x="1127" y="-62"/>
      <point x="1170" y="-62" type="curve" smooth="yes"/>
      <point x="1212" y="-62"/>
      <point x="1248" y="-40"/>
      <point x="1257" y="12" type="curve"/>
      <point x="1427" y="737"/>
      <point x="1621" y="1558"/>
      <point x="1893" y="1558" type="curve" smooth="yes"/>
      <point x="1994" y="1558"/>
      <point x="2020" y="1459"/>
      <point x="2020" y="1370" type="curve" smooth="yes"/>
      <point x="2020" y="1003"/>
      <point x="1794" y="515"/>
      <point x="1794" y="159" type="curve" smooth="yes"/>
      <point x="1794" y="5"/>
      <point x="1890" y="-97"/>
    </contour>
  </outline>
</glyph>
<glyph name="P" format="1">
  <advance width="1374"/>
  <unicode hex="0050"/>
  <outline>
    <contour>
      <point x="0" y="162"/>
      <point x="94" y="-289"/>
      <point x="378" y="-289" type="curve" smooth="yes"/>
      <point x="654" y="-289"/>
      <point x="732" y="-41"/>
      <point x="772" y="350" type="curve" smooth="yes"/>
      <point x="788" y="486"/>
      <point x="828" y="780"/>
      <point x="838" y="780" type="curve" smooth="yes"/>
      <point x="1428" y="798"/>
      <point x="1684" y="1181"/>
      <point x="1684" y="1437" type="curve" smooth="yes"/>
      <point x="1684" y="1702"/>
      <point x="1424" y="2019"/>
      <point x="881" y="2000" type="curve" smooth="yes"/>
      <point x="292" y="1979"/>
      <point x="0" y="1387"/>
      <point x="0" y="647" type="curve" smooth="yes"/>
    </contour>
    <contour>
      <point x="609" y="442"/>
      <point x="624" y="-136"/>
      <point x="412" y="-136" type="curve" smooth="yes"/>
      <point x="193" y="-136"/>
      <point x="177" y="351"/>
      <point x="177" y="647" type="curve" smooth="yes"/>
      <point x="177" y="1148"/>
      <point x="331" y="1814"/>
      <point x="854" y="1845" type="curve" smooth="yes"/>
      <point x="1302" y="1871"/>
      <point x="1487" y="1607"/>
      <point x="1487" y="1416" type="curve" smooth="yes"/>
      <point x="1487" y="1228"/>
      <point x="1350" y="929"/>
      <point x="846" y="913" type="curve" smooth="yes"/>
      <point x="846" y="913"/>
      <point x="865" y="1152"/>
      <point x="1010" y="1399" type="curve" smooth="yes"/>
      <point x="1023" y="1421"/>
      <point x="989" y="1452"/>
      <point x="925" y="1452" type="curve" smooth="yes"/>
      <point x="760" y="1452"/>
      <point x="732" y="1224"/>
      <point x="676" y="920" type="curve"/>
      <point x="595" y="920"/>
      <point x="462" y="991"/>
      <point x="432" y="1005" type="curve" smooth="yes"/>
      <point x="414" y="1013"/>
      <point x="415" y="973"/>
      <point x="415" y="954" type="curve" smooth="yes"/>
      <point x="415" y="836"/>
      <point x="587" y="796"/>
      <point x="662" y="788" type="curve"/>
    </contour>
  </outline>
</glyph>
<glyph name="Q" format="1">
  <advance width="1853"/>
  <unicode hex="0051"/>
  <outline>
    <contour>
      <point x="1541" y="-947" type="curve"/>
      <point x="1700" y="-947"/>
      <point x="1801" y="-895"/>
      <point x="1833" y="-877" type="curve"/>
      <point x="1860" y="-861"/>
      <point x="1870" y="-853"/>
      <point x="1870" y="-836" type="curve"/>
      <point x="1870" y="-818"/>
      <point x="1851" y="-789"/>
      <point x="1834" y="-786" type="curve"/>
      <point x="1825" y="-784"/>
      <point x="1815" y="-787"/>
      <point x="1804" y="-790" type="curve"/>
      <point x="1741" y="-804"/>
      <point x="1677" y="-816"/>
      <point x="1616" y="-816" type="curve"/>
      <point x="1364" y="-816"/>
      <point x="1097" y="-434"/>
      <point x="1001" y="479" type="curve"/>
      <point x="1001" y="504"/>
      <point x="887" y="490"/>
      <point x="890" y="456" type="curve"/>
      <point x="973" y="-342"/>
      <point x="1121" y="-947"/>
    </contour>
    <contour>
      <point x="882" y="-150" type="curve"/>
      <point x="531" y="-150"/>
      <point x="371" y="265.731"/>
      <point x="371" y="536" type="curve"/>
      <point x="371" y="975.874"/>
      <point x="617" y="1717"/>
      <point x="1157" y="1717" type="curve"/>
      <point x="1492" y="1717"/>
      <point x="1615" y="1344.3"/>
      <point x="1615" y="1041" type="curve"/>
      <point x="1615" y="635"/>
      <point x="1418" y="-150"/>
    </contour>
    <contour>
      <point x="863" y="-303" type="curve"/>
      <point x="1483" y="-303"/>
      <point x="1805" y="451"/>
      <point x="1805" y="991.999" type="curve"/>
      <point x="1805" y="1441.19"/>
      <point x="1577" y="1866"/>
      <point x="1143" y="1866" type="curve"/>
      <point x="554" y="1866"/>
      <point x="190" y="1169.75"/>
      <point x="190" y="543" type="curve"/>
      <point x="190" y="160.24"/>
      <point x="424" y="-303"/>
    </contour>
  </outline>
</glyph>
<glyph name="T" format="1">
  <advance width="1142.090"/>
  <unicode hex="0054"/>
  <outline>
    <contour>
      <point x="680" y="-74" type="curve"/>
      <point x="750" y="-74"/>
      <point x="774" y="-38"/>
      <point x="787" y="41" type="curve"/>
      <point x="824" y="270"/>
      <point x="959" y="696"/>
      <point x="1295" y="1582" type="curve"/>
      <point x="1743" y="1537"/>
      <point x="2086" y="1515"/>
      <point x="2219" y="1599" type="curve" smooth="yes"/>
      <point x="2260" y="1625"/>
      <point x="2245" y="1732"/>
      <point x="2184" y="1722" type="curve" smooth="yes"/>
      <point x="1419" y="1601"/>
      <point x="166" y="2221"/>
      <point x="7" y="1561" type="curve"/>
      <point x="-37" y="1398"/>
      <point x="137" y="1369"/>
      <point x="164" y="1452" type="curve"/>
      <point x="221" y="1661"/>
      <point x="354" y="1702"/>
      <point x="1147" y="1599" type="curve"/>
      <point x="608" y="312"/>
      <point x="592" y="121"/>
      <point x="595" y="21" type="curve"/>
      <point x="596" y="-35"/>
      <point x="613" y="-74"/>
    </contour>
  </outline>
</glyph>
<glyph name="W" format="1">
  <advance width="2192"/>
  <unicode hex="0057"/>
  <outline>
    <contour>
      <point x="1771" y="317" type="line"/>
      <point x="1771" y="317"/>
      <point x="1996" y="-20"/>
      <point x="2409" y="345" type="curve" smooth="yes"/>
      <point x="2426" y="360"/>
      <point x="2395" y="437"/>
      <point x="2376" y="426" type="curve" smooth="yes"/>
      <point x="1970" y="194"/>
      <point x="1931" y="389"/>
      <point x="1911" y="431" type="curve"/>
    </contour>
    <contour>
      <point x="1422" y="-101" type="curve"/>
      <point x="1844.58" y="-117.464"/>
      <point x="2061.12" y="751.141"/>
      <point x="2167" y="1693" type="curve"/>
      <point x="2173" y="1743"/>
      <point x="2156" y="1760"/>
      <point x="2112" y="1760" type="curve"/>
      <point x="2025" y="1760"/>
      <point x="2010" y="1750"/>
      <point x="1992" y="1658" type="curve"/>
      <point x="1964" y="1500"/>
      <point x="1777" y="155"/>
      <point x="1467" y="72" type="curve"/>
      <point x="1090" y="-28"/>
      <point x="1197" y="804"/>
      <point x="1287" y="1214" type="curve"/>
      <point x="1333" y="1425"/>
      <point x="1359" y="1527"/>
      <point x="1384" y="1637" type="curve"/>
      <point x="1393" y="1675"/>
      <point x="1371" y="1707"/>
      <point x="1321" y="1707" type="curve"/>
      <point x="1240" y="1707"/>
      <point x="1217" y="1650"/>
      <point x="1190" y="1537" type="curve"/>
      <point x="1133" y="1297"/>
      <point x="1039.62" y="960.574"/>
      <point x="988.562" y="775.371" type="curve"/>
      <point x="900.297" y="455.154"/>
      <point x="698" y="68"/>
      <point x="449" y="68" type="curve"/>
      <point x="306" y="68"/>
      <point x="260" y="234"/>
      <point x="271" y="422" type="curve"/>
      <point x="284" y="689"/>
      <point x="432" y="1143"/>
      <point x="463" y="1242" type="curve"/>
      <point x="508" y="1387"/>
      <point x="561" y="1528"/>
      <point x="604" y="1681" type="curve"/>
      <point x="606.883" y="1692.53"/>
      <point x="638.431" y="1751"/>
      <point x="547" y="1751" type="curve"/>
      <point x="454" y="1751"/>
      <point x="430" y="1669"/>
      <point x="385" y="1566" type="curve"/>
      <point x="315" y="1398"/>
      <point x="115" y="827"/>
      <point x="96" y="455" type="curve"/>
      <point x="78" y="133"/>
      <point x="140" y="-95"/>
      <point x="413" y="-95" type="curve"/>
      <point x="685" y="-95"/>
      <point x="970" y="197"/>
      <point x="1056" y="561" type="curve"/>
      <point x="1051" y="282"/>
      <point x="1054" y="-108"/>
    </contour>
  </outline>
</glyph>
<glyph name="underscore" format="1">
  <advance width="1248"/>
  <unicode hex="005F"/>
  <outline>
    <contour>
      <point x="98" y="30" type="curve"/>
      <point x="1044" y="30" type="line"/>
      <point x="1174" y="30"/>
      <point x="1260" y="57"/>
      <point x="1260" y="163" type="curve"/>
      <point x="1260" y="187"/>
      <point x="1247" y="195"/>
      <point x="1208" y="195" type="curve"/>
      <point x="853" y="195" type="line"/>
      <point x="737.234" y="195"/>
      <point x="609" y="194"/>
      <point x="496" y="194" type="curve"/>
      <point x="206" y="194" type="line"/>
      <point x="97" y="194"/>
      <point x="-6" y="187"/>
      <point x="-6" y="108" type="curve"/>
      <point x="-6" y="56"/>
      <point x="37" y="30"/>
    </contour>
  </outline>
</glyph>
<glyph name="b" format="1">
  <advance width="1086"/>
  <unicode hex="0062"/>
  <outline>
    <contour>
      <point x="893" y="373" type="curve" smooth="yes"/>
      <point x="1034" y="373"/>
      <point x="1200" y="460"/>
      <point x="1295" y="548" type="curve" smooth="yes"/>
      <point x="1316" y="568"/>
      <point x="1319" y="576"/>
      <point x="1319" y="606" type="curve" smooth="yes"/>
      <point x="1319" y="640"/>
      <point x="1302" y="656"/>
      <point x="1285" y="656" type="curve" smooth="yes"/>
      <point x="1267" y="656"/>
      <point x="1118" y="503"/>
      <point x="957" y="503" type="curve" smooth="yes"/>
      <point x="812" y="505"/>
      <point x="891" y="627"/>
      <point x="796" y="620" type="curve" smooth="yes"/>
      <point x="713" y="614"/>
      <point x="692" y="559"/>
      <point x="692" y="507" type="curve" smooth="yes"/>
      <point x="692" y="426"/>
      <point x="759" y="373"/>
    </contour>
    <contour>
      <point x="502" y="-16" type="curve" smooth="yes"/>
      <point x="810.952" y="-16"/>
      <point x="953.632" y="283.144"/>
      <point x="956.115" y="551.14" type="curve" smooth="yes"/>
      <point x="958.153" y="771.003"/>
      <point x="865.831" y="969.901"/>
      <point x="693.547" y="965.454" type="curve" smooth="yes"/>
      <point x="648.969" y="964.304"/>
      <point x="599.036" y="949.539"/>
      <point x="544" y="918" type="curve"/>
      <point x="716" y="1045"/>
      <point x="931" y="1403"/>
      <point x="953" y="1621" type="curve" smooth="yes"/>
      <point x="969" y="1784"/>
      <point x="919" y="1920"/>
      <point x="749" y="1920" type="curve" smooth="yes"/>
      <point x="349" y="1920"/>
      <point x="130" y="670"/>
      <point x="130" y="375" type="curve" smooth="yes"/>
      <point x="130" y="165"/>
      <point x="226" y="-16"/>
    </contour>
    <contour>
      <point x="500" y="115" type="curve" smooth="yes"/>
      <point x="343" y="115"/>
      <point x="271" y="223"/>
      <point x="271" y="395" type="curve" smooth="yes"/>
      <point x="271" y="594"/>
      <point x="425" y="837"/>
      <point x="630" y="837" type="curve" smooth="yes"/>
      <point x="808" y="837"/>
      <point x="817" y="656"/>
      <point x="817" y="527" type="curve" smooth="yes"/>
      <point x="817" y="345"/>
      <point x="679" y="115"/>
    </contour>
    <contour>
      <point x="305" y="803" type="curve"/>
      <point x="329" y="935"/>
      <point x="549" y="1788"/>
      <point x="740" y="1788" type="curve" smooth="yes"/>
      <point x="800" y="1788"/>
      <point x="821" y="1720"/>
      <point x="821" y="1678" type="curve" smooth="yes"/>
      <point x="821" y="1290"/>
      <point x="341" y="844"/>
    </contour>
  </outline>
</glyph>
<glyph name="h" format="1">
  <advance width="1034"/>
  <unicode hex="0068"/>
  <outline>
    <contour>
      <point x="347" y="787" type="curve"/>
      <point x="397" y="1071"/>
      <point x="677" y="1792"/>
      <point x="823" y="1761" type="curve"/>
      <point x="869" y="1751"/>
      <point x="882" y="1715"/>
      <point x="879" y="1660" type="curve"/>
      <point x="864" y="1480"/>
      <point x="586" y="1033"/>
    </contour>
    <contour>
      <point x="163" y="0" type="curve"/>
      <point x="228" y="-13"/>
      <point x="275" y="25"/>
      <point x="307" y="95" type="curve"/>
      <point x="398" y="299"/>
      <point x="547" y="493"/>
      <point x="632" y="592" type="curve"/>
      <point x="928" y="953"/>
      <point x="656" y="525"/>
      <point x="612" y="153" type="curve"/>
      <point x="603" y="25"/>
      <point x="631" y="-18"/>
      <point x="751" y="0" type="curve"/>
      <point x="913" y="24"/>
      <point x="1077" y="143"/>
      <point x="1177" y="216" type="curve"/>
      <point x="1177" y="172.988"/>
      <point x="1223" y="274"/>
      <point x="1223" y="306" type="curve"/>
      <point x="1223" y="348"/>
      <point x="1201" y="380"/>
      <point x="1187" y="380" type="curve"/>
      <point x="1173" y="380"/>
      <point x="1164" y="364"/>
      <point x="1142" y="346" type="curve"/>
      <point x="1106" y="314"/>
      <point x="905" y="134"/>
      <point x="817" y="134" type="curve"/>
      <point x="789" y="134"/>
      <point x="763" y="150"/>
      <point x="763" y="183" type="curve"/>
      <point x="763" y="325"/>
      <point x="885" y="573"/>
      <point x="952" y="772" type="curve"/>
      <point x="975" y="839"/>
      <point x="964" y="955"/>
      <point x="889" y="955" type="curve"/>
      <point x="814" y="955"/>
      <point x="573" y="786"/>
      <point x="285" y="300" type="curve"/>
      <point x="322" y="606" type="line"/>
      <point x="825" y="1086"/>
      <point x="993" y="1472"/>
      <point x="1022" y="1697" type="curve"/>
      <point x="1033" y="1830"/>
      <point x="971" y="1920"/>
      <point x="856" y="1920" type="curve"/>
      <point x="425" y="1920"/>
      <point x="165" y="862"/>
      <point x="119" y="301" type="curve"/>
      <point x="111" y="208"/>
      <point x="99" y="12"/>
    </contour>
  </outline>
</glyph>
<glyph name="k" format="1">
  <advance width="1227"/>
  <unicode hex="006B"/>
  <outline>
    <contour>
      <point x="224" y="-10" type="curve"/>
      <point x="425" y="0"/>
      <point x="697" y="840"/>
      <point x="940" y="819" type="curve"/>
      <point x="1025" y="812"/>
      <point x="1042" y="754"/>
      <point x="1042" y="710" type="curve"/>
      <point x="1042" y="582"/>
      <point x="654" y="403"/>
      <point x="654" y="177" type="curve"/>
      <point x="654" y="17"/>
      <point x="776" y="-9"/>
      <point x="873" y="-9" type="curve"/>
      <point x="967" y="-9"/>
      <point x="1239" y="64"/>
      <point x="1405" y="310" type="curve"/>
      <point x="1437" y="357"/>
      <point x="1414" y="432"/>
      <point x="1367" y="432" type="curve"/>
      <point x="1365" y="432"/>
      <point x="1086" y="133"/>
      <point x="934" y="133" type="curve"/>
      <point x="884" y="133"/>
      <point x="847" y="154"/>
      <point x="848" y="208" type="curve"/>
      <point x="869" y="386"/>
      <point x="1216" y="485"/>
      <point x="1193.12" y="765.304" type="curve"/>
      <point x="1182.13" y="887.938"/>
      <point x="1107" y="963"/>
      <point x="987" y="963" type="curve"/>
      <point x="894" y="963"/>
      <point x="704" y="966"/>
      <point x="312" y="286" type="curve"/>
      <point x="264" y="522"/>
      <point x="502" y="1719"/>
      <point x="790" y="1730" type="curve"/>
      <point x="1073" y="1730"/>
      <point x="534" y="874"/>
      <point x="345" y="769" type="curve"/>
      <point x="195" y="677"/>
      <point x="264" y="508"/>
      <point x="303" y="576" type="curve"/>
      <point x="550" y="755"/>
      <point x="1007" y="1295"/>
      <point x="1007" y="1709" type="curve"/>
      <point x="1007" y="1817"/>
      <point x="950" y="1926"/>
      <point x="845" y="1926" type="curve"/>
      <point x="510" y="1926"/>
      <point x="182" y="1139"/>
      <point x="147" y="329" type="curve"/>
      <point x="147" y="23"/>
      <point x="186" y="-10"/>
    </contour>
  </outline>
</glyph>
<glyph name="m" format="1">
  <advance width="1447"/>
  <unicode hex="006D"/>
  <outline>
    <contour>
      <point x="1216" y="-7" type="curve"/>
      <point x="1344" y="-6"/>
      <point x="1507" y="64"/>
      <point x="1650" y="263" type="curve"/>
      <point x="1684" y="299"/>
      <point x="1594" y="378"/>
      <point x="1565" y="330" type="curve"/>
      <point x="1498" y="256"/>
      <point x="1384" y="129"/>
      <point x="1286" y="127" type="curve"/>
      <point x="1227.72" y="125.629"/>
      <point x="1210.34" y="162.811"/>
      <point x="1214.12" y="230.328" type="curve" smooth="yes"/>
      <point x="1221.36" y="359.74"/>
      <point x="1306.34" y="600.595"/>
      <point x="1330" y="895" type="curve"/>
      <point x="1332" y="929"/>
      <point x="1307" y="963"/>
      <point x="1251" y="961" type="curve"/>
      <point x="1189" y="959"/>
      <point x="1164" y="928"/>
      <point x="1147" y="910" type="curve"/>
      <point x="1131.55" y="893.644"/>
      <point x="1003.81" y="740.219"/>
      <point x="838.047" y="427.217" type="curve" smooth="yes"/>
      <point x="821.39" y="395.763"/>
      <point x="804.349" y="362.699"/>
      <point x="787" y="328" type="curve"/>
      <point x="832" y="581"/>
      <point x="871" y="804"/>
      <point x="870" y="885" type="curve"/>
      <point x="869" y="945"/>
      <point x="840" y="959"/>
      <point x="815" y="959" type="curve"/>
      <point x="787.513" y="959"/>
      <point x="755.958" y="944.784"/>
      <point x="721.894" y="919.602" type="curve" smooth="yes"/>
      <point x="613.196" y="839.248"/>
      <point x="478.953" y="647.242"/>
      <point x="369.845" y="449.242" type="curve" smooth="yes"/>
      <point x="351.433" y="415.83"/>
      <point x="333.737" y="382.246"/>
      <point x="317" y="349" type="curve"/>
      <point x="358" y="729"/>
      <point x="416" y="818"/>
      <point x="419" y="903" type="curve"/>
      <point x="420" y="961"/>
      <point x="383" y="964"/>
      <point x="359" y="964" type="curve"/>
      <point x="312.5" y="965"/>
      <point x="272.5" y="940.75"/>
      <point x="236.5" y="830.375" type="curve" smooth="yes"/>
      <point x="200.5" y="720"/>
      <point x="168.5" y="523.5"/>
      <point x="138" y="180" type="curve"/>
      <point x="132" y="88"/>
      <point x="149" y="-8"/>
      <point x="229" y="-8" type="curve"/>
      <point x="313" y="-8"/>
      <point x="310" y="13"/>
      <point x="386" y="186" type="curve"/>
      <point x="476" y="393"/>
      <point x="679" y="747"/>
      <point x="717" y="721" type="curve"/>
      <point x="730" y="702"/>
      <point x="641" y="312"/>
      <point x="632" y="114" type="curve"/>
      <point x="627" y="8"/>
      <point x="678" y="-8"/>
      <point x="701" y="-8" type="curve"/>
      <point x="730" y="-8"/>
      <point x="783" y="-7"/>
      <point x="827" y="113" type="curve"/>
      <point x="887" y="277"/>
      <point x="1112" y="731"/>
      <point x="1154" y="690" type="curve"/>
      <point x="1158" y="550"/>
      <point x="1073" y="292"/>
      <point x="1072" y="140" type="curve"/>
      <point x="1071" y="47"/>
      <point x="1102" y="-8"/>
    </contour>
  </outline>
</glyph>
<glyph name="o" format="1">
  <advance width="925"/>
  <unicode hex="006F"/>
  <outline>
    <contour>
      <point x="410" y="120" type="curve" smooth="yes"/>
      <point x="264" y="110"/>
      <point x="228" y="226"/>
      <point x="228" y="343" type="curve" smooth="yes"/>
      <point x="228" y="580"/>
      <point x="392" y="837"/>
      <point x="572" y="837" type="curve" smooth="yes"/>
      <point x="692" y="837"/>
      <point x="660" y="651"/>
      <point x="660" y="651" type="curve" smooth="yes"/>
      <point x="559" y="625"/>
      <point x="521" y="472"/>
      <point x="658" y="472" type="curve"/>
      <point x="651" y="332"/>
      <point x="549" y="130"/>
    </contour>
    <contour>
      <point x="351" y="-8" type="curve" smooth="yes"/>
      <point x="639" y="-8"/>
      <point x="768" y="285"/>
      <point x="797" y="463" type="curve"/>
      <point x="883" y="462"/>
      <point x="1066" y="522"/>
      <point x="1151" y="605" type="curve"/>
      <point x="1193" y="649"/>
      <point x="1158" y="725"/>
      <point x="1110" y="712" type="curve"/>
      <point x="1015" y="650"/>
      <point x="974" y="589"/>
      <point x="813" y="577" type="curve"/>
      <point x="846" y="828"/>
      <point x="751" y="965"/>
      <point x="571" y="965" type="curve" smooth="yes"/>
      <point x="305" y="965"/>
      <point x="70" y="635"/>
      <point x="70" y="331" type="curve" smooth="yes"/>
      <point x="70" y="139"/>
      <point x="171" y="-8"/>
    </contour>
  </outline>
</glyph>
<glyph name="r" format="1">
  <advance width="873.003"/>
  <unicode hex="0072"/>
  <outline>
    <contour>
      <point x="219" y="-2" type="curve"/>
      <point x="282" y="-2"/>
      <point x="283" y="15"/>
      <point x="301" y="56" type="curve"/>
      <point x="490" y="572"/>
      <point x="761" y="953"/>
      <point x="698.418" y="724.386" type="curve"/>
      <point x="633.714" y="533.13"/>
      <point x="656.129" y="303.386"/>
      <point x="855.06" y="329.74" type="curve"/>
      <point x="945.104" y="341.564"/>
      <point x="1031" y="420"/>
      <point x="1077" y="479" type="curve"/>
      <point x="1126" y="542"/>
      <point x="1078" y="611"/>
      <point x="1025" y="558" type="curve"/>
      <point x="843" y="377"/>
      <point x="754" y="435"/>
      <point x="803" y="641" type="curve"/>
      <point x="854" y="850"/>
      <point x="871" y="963"/>
      <point x="744" y="963" type="curve"/>
      <point x="576" y="963"/>
      <point x="354" y="508"/>
      <point x="295" y="325" type="curve"/>
      <point x="315" y="605"/>
      <point x="381" y="800"/>
      <point x="405" y="897" type="curve"/>
      <point x="414" y="932"/>
      <point x="391" y="964"/>
      <point x="352" y="964" type="curve"/>
      <point x="297" y="964"/>
      <point x="279" y="939"/>
      <point x="253" y="854" type="curve"/>
      <point x="198" y="681"/>
      <point x="143" y="383"/>
      <point x="141" y="184" type="curve"/>
      <point x="140" y="79"/>
      <point x="139" y="-2"/>
    </contour>
  </outline>
</glyph>
<glyph name="s" format="1">
  <advance width="896"/>
  <unicode hex="0073"/>
  <outline>
    <contour>
      <point x="448" y="-8" type="curve"/>
      <point x="759" y="-8"/>
      <point x="962" y="133"/>
      <point x="1113" y="279" type="curve"/>
      <point x="1133" y="303"/>
      <point x="1092" y="404"/>
      <point x="1064" y="376" type="curve"/>
      <point x="1013" y="324"/>
      <point x="872" y="163"/>
      <point x="683" y="125" type="curve"/>
      <point x="919" y="436"/>
      <point x="550" y="700"/>
      <point x="654" y="841" type="curve"/>
      <point x="729" y="944"/>
      <point x="604" y="1034"/>
      <point x="513" y="904" type="curve"/>
      <point x="66.652" y="253.076"/>
      <point x="37" y="272"/>
      <point x="34" y="205" type="curve"/>
      <point x="34" y="150"/>
      <point x="224" y="-5"/>
    </contour>
    <contour>
      <point x="402" y="108" type="curve"/>
      <point x="321" y="111"/>
      <point x="248" y="163"/>
      <point x="200" y="204" type="curve"/>
      <point x="268" y="299"/>
      <point x="486" y="641"/>
      <point x="486" y="641" type="curve"/>
      <point x="528" y="703" type="line"/>
      <point x="716" y="331"/>
      <point x="628" y="99"/>
    </contour>
  </outline>
</glyph>
<glyph name="t" format="1">
  <advance width="724.998"/>
  <unicode hex="0074"/>
  <outline>
    <contour>
      <point x="30" y="575" type="curve"/>
      <point x="118" y="611"/>
      <point x="655" y="774"/>
      <point x="849" y="793" type="curve"/>
      <point x="902" y="798"/>
      <point x="867" y="915"/>
      <point x="801" y="906" type="curve"/>
      <point x="647" y="889"/>
      <point x="270" y="780"/>
      <point x="-15" y="661" type="curve"/>
      <point x="-56" y="645"/>
      <point x="-29" y="549"/>
    </contour>
    <contour>
      <point x="333" y="786" type="curve"/>
      <point x="355" y="984"/>
      <point x="511" y="1654"/>
      <point x="794" y="1652" type="curve"/>
      <point x="836" y="1650"/>
      <point x="835" y="1570"/>
      <point x="830" y="1534" type="curve"/>
      <point x="793" y="1228"/>
      <point x="535" y="988"/>
    </contour>
    <contour>
      <point x="406" y="-35" type="curve"/>
      <point x="568" y="-35"/>
      <point x="744" y="44"/>
      <point x="907" y="220" type="curve"/>
      <point x="979" y="296"/>
      <point x="883" y="360"/>
      <point x="846" y="320" type="curve"/>
      <point x="739" y="204"/>
      <point x="577" y="91"/>
      <point x="457" y="91" type="curve"/>
      <point x="257" y="91"/>
      <point x="299" y="487"/>
      <point x="329" y="684" type="curve"/>
      <point x="621" y="889"/>
      <point x="912" y="1264"/>
      <point x="941" y="1627" type="curve"/>
      <point x="949" y="1720"/>
      <point x="912" y="1790"/>
      <point x="814" y="1792" type="curve"/>
      <point x="448" y="1796"/>
      <point x="197" y="1034"/>
      <point x="149" y="603" type="curve"/>
      <point x="115" y="261"/>
      <point x="175" y="-35"/>
    </contour>
  </outline>
</glyph>
<glyph name="braceleft" format="1">
  <advance width="1153"/>
  <unicode hex="007B"/>
  <outline>
    <contour>
      <point x="570" y="-313" type="curve"/>
      <point x="727" y="-313"/>
      <point x="994" y="-258"/>
      <point x="994" y="-113" type="curve"/>
      <point x="994" y="-64"/>
      <point x="970" y="-33"/>
      <point x="926" y="-33" type="curve"/>
      <point x="839" y="-33"/>
      <point x="793" y="-107"/>
      <point x="675" y="-107" type="curve"/>
      <point x="577" y="-107"/>
      <point x="555" y="-25"/>
      <point x="555" y="60" type="curve"/>
      <point x="555" y="212"/>
      <point x="602" y="381.977"/>
      <point x="602" y="534" type="curve"/>
      <point x="602" y="688"/>
      <point x="554" y="745"/>
      <point x="402" y="762" type="curve"/>
      <point x="530" y="772"/>
      <point x="596.578" y="872.503"/>
      <point x="636.63" y="976.879" type="curve"/>
      <point x="692.516" y="1123.95"/>
      <point x="670" y="1621"/>
      <point x="900" y="1621" type="curve"/>
      <point x="1004" y="1621"/>
      <point x="1092" y="1589"/>
      <point x="1183" y="1589" type="curve"/>
      <point x="1235" y="1589"/>
      <point x="1280" y="1642"/>
      <point x="1280" y="1697" type="curve"/>
      <point x="1280" y="1714"/>
      <point x="1273" y="1728"/>
      <point x="1262" y="1736" type="curve"/>
      <point x="1263" y="1736" type="line"/>
      <point x="1175" y="1802"/>
      <point x="1035" y="1827"/>
      <point x="877" y="1827" type="curve"/>
      <point x="609" y="1827"/>
      <point x="491" y="1656"/>
      <point x="512" y="1176" type="curve"/>
      <point x="512" y="1011.03"/>
      <point x="446.345" y="899.415"/>
      <point x="254.641" y="895.008" type="curve"/>
      <point x="196.49" y="893.517"/>
      <point x="157" y="808.746"/>
      <point x="157" y="735" type="curve"/>
      <point x="157" y="687.534"/>
      <point x="172.14" y="657"/>
      <point x="209" y="657" type="curve"/>
      <point x="338.916" y="657"/>
      <point x="390" y="559.375"/>
      <point x="390" y="439" type="curve"/>
      <point x="390" y="267"/>
      <point x="337" y="139"/>
      <point x="337" y="-3" type="curve"/>
      <point x="337" y="-178"/>
      <point x="406" y="-313"/>
    </contour>
  </outline>
</glyph>
<glyph name="yen" format="1">
  <advance width="1793"/>
  <unicode hex="00A5"/>
  <outline>
    <contour>
      <point x="557" y="3" type="curve"/>
      <point x="800" y="3"/>
      <point x="858" y="180"/>
      <point x="923" y="387" type="curve"/>
      <point x="1191" y="387" type="line"/>
      <point x="1279" y="387"/>
      <point x="1346" y="397"/>
      <point x="1346" y="481" type="curve"/>
      <point x="1346" y="507.017"/>
      <point x="1291.27" y="515"/>
      <point x="1239" y="515" type="curve"/>
      <point x="964.131" y="515" type="line"/>
      <point x="1021.01" y="671" type="line"/>
      <point x="1216" y="671" type="line"/>
      <point x="1351" y="671"/>
      <point x="1395" y="709"/>
      <point x="1395" y="765" type="curve"/>
      <point x="1395" y="792"/>
      <point x="1337" y="799"/>
      <point x="1283" y="799" type="curve"/>
      <point x="1107" y="799" type="line"/>
      <point x="1244" y="994"/>
      <point x="1398" y="1191"/>
      <point x="1533" y="1378" type="curve"/>
      <point x="1586" y="1452"/>
      <point x="1647" y="1512"/>
      <point x="1647" y="1598" type="curve"/>
      <point x="1647" y="1638"/>
      <point x="1621" y="1655"/>
      <point x="1572" y="1655" type="curve"/>
      <point x="1523" y="1655"/>
      <point x="1481" y="1639"/>
      <point x="1465" y="1614" type="curve"/>
      <point x="1293" y="1356"/>
      <point x="1122" y="1080"/>
      <point x="940" y="820" type="curve"/>
      <point x="942" y="834" type="line"/>
      <point x="919" y="837"/>
      <point x="856" y="1689"/>
      <point x="550" y="1689" type="curve"/>
      <point x="524" y="1689"/>
      <point x="496" y="1684"/>
      <point x="462" y="1672" type="curve"/>
      <point x="322" y="1622"/>
      <point x="214" y="1521"/>
      <point x="119" y="1410" type="curve"/>
      <point x="94" y="1364"/>
      <point x="149" y="1319"/>
      <point x="204" y="1333" type="curve"/>
      <point x="278" y="1411"/>
      <point x="388" y="1530"/>
      <point x="497" y="1530" type="curve"/>
      <point x="680" y="1530"/>
      <point x="740" y="1091"/>
      <point x="796" y="799" type="curve"/>
      <point x="611" y="799" type="line"/>
      <point x="546" y="799"/>
      <point x="495" y="792"/>
      <point x="495" y="759" type="curve"/>
      <point x="495" y="713"/>
      <point x="523.108" y="671"/>
      <point x="594" y="671" type="curve"/>
      <point x="787.423" y="671" type="line"/>
      <point x="748.423" y="515" type="line"/>
      <point x="589" y="515" type="line"/>
      <point x="524.901" y="515"/>
      <point x="478" y="507.362"/>
      <point x="478" y="475" type="curve"/>
      <point x="478" y="401"/>
      <point x="521" y="387"/>
      <point x="589" y="387" type="curve"/>
      <point x="712" y="387" type="line"/>
      <point x="695" y="330"/>
      <point x="663" y="129"/>
      <point x="600" y="129" type="curve"/>
      <point x="543" y="129"/>
      <point x="522" y="155"/>
      <point x="484" y="155" type="curve"/>
      <point x="463" y="155"/>
      <point x="444" y="116"/>
      <point x="444" y="80" type="curve"/>
      <point x="444" y="31"/>
      <point x="495" y="3"/>
    </contour>
  </outline>
</glyph>
<glyph name="copyright" format="1">
  <advance width="1792"/>
  <unicode hex="00A9"/>
  <outline>
    <contour>
      <point x="843" y="337" type="curve"/>
      <point x="976" y="337"/>
      <point x="1080" y="397"/>
      <point x="1161" y="456" type="curve"/>
      <point x="1171" y="464"/>
      <point x="1178" y="475"/>
      <point x="1178" y="493" type="curve"/>
      <point x="1178" y="542"/>
      <point x="1156" y="568"/>
      <point x="1135" y="561" type="curve"/>
      <point x="1077" y="525"/>
      <point x="987" y="467"/>
      <point x="892" y="467" type="curve"/>
      <point x="766" y="467"/>
      <point x="721" y="573"/>
      <point x="721" y="685" type="curve"/>
      <point x="721" y="831"/>
      <point x="769" y="1037"/>
      <point x="934" y="1037" type="curve"/>
      <point x="1009" y="1037"/>
      <point x="978" y="916"/>
      <point x="978" y="876" type="curve"/>
      <point x="978" y="835"/>
      <point x="986" y="824"/>
      <point x="1020" y="824" type="curve"/>
      <point x="1088" y="824"/>
      <point x="1129" y="903"/>
      <point x="1129" y="983" type="curve"/>
      <point x="1129" y="1097"/>
      <point x="1036" y="1166"/>
      <point x="915" y="1166" type="curve"/>
      <point x="699" y="1166"/>
      <point x="540" y="934"/>
      <point x="540" y="667" type="curve"/>
      <point x="540" y="490"/>
      <point x="625" y="337"/>
    </contour>
    <contour>
      <point x="851" y="146" type="curve"/>
      <point x="510" y="146"/>
      <point x="249" y="312"/>
      <point x="249" y="652" type="curve"/>
      <point x="249" y="1063"/>
      <point x="556" y="1346"/>
      <point x="973" y="1346" type="curve"/>
      <point x="1303" y="1346"/>
      <point x="1515" y="1176"/>
      <point x="1515" y="850" type="curve"/>
      <point x="1515" y="454"/>
      <point x="1255" y="146"/>
    </contour>
    <contour>
      <point x="847" y="30" type="curve"/>
      <point x="1215" y="30"/>
      <point x="1657" y="300"/>
      <point x="1657" y="855" type="curve"/>
      <point x="1657" y="1246"/>
      <point x="1409" y="1464"/>
      <point x="1011" y="1464" type="curve"/>
      <point x="506" y="1464"/>
      <point x="106" y="1163"/>
      <point x="106" y="664" type="curve"/>
      <point x="106" y="253"/>
      <point x="420" y="30"/>
    </contour>
  </outline>
</glyph>
<glyph name="registered" format="1">
  <advance width="1760"/>
  <unicode hex="00AE"/>
  <outline>
    <contour>
      <point x="812" y="887" type="curve"/>
      <point x="798" y="899"/>
      <point x="860" y="1163"/>
      <point x="880.861" y="1163" type="curve"/>
      <point x="1053" y="1182"/>
      <point x="1123" y="1135"/>
      <point x="1123" y="1044" type="curve"/>
      <point x="1123" y="917"/>
      <point x="972" y="874"/>
    </contour>
    <contour>
      <point x="517" y="391" type="curve"/>
      <point x="696.017" y="391"/>
      <point x="746" y="640"/>
      <point x="792" y="801" type="curve"/>
      <point x="1010" y="801"/>
      <point x="845" y="407"/>
      <point x="1004" y="407" type="curve"/>
      <point x="1141" y="407"/>
      <point x="1269" y="513"/>
      <point x="1259" y="548" type="curve"/>
      <point x="1249" y="568" type="line"/>
      <point x="1231" y="616"/>
      <point x="1155.02" y="512"/>
      <point x="1093" y="512" type="curve"/>
      <point x="999" y="512"/>
      <point x="1104" y="756"/>
      <point x="964" y="816" type="curve"/>
      <point x="1112" y="824"/>
      <point x="1262" y="911.957"/>
      <point x="1262" y="1054" type="curve"/>
      <point x="1262" y="1189.29"/>
      <point x="1118" y="1287"/>
      <point x="910" y="1272" type="curve"/>
      <point x="865" y="1272"/>
      <point x="905" y="1247"/>
      <point x="833" y="1247" type="curve"/>
      <point x="742.492" y="1247"/>
      <point x="742" y="1139"/>
      <point x="677" y="901" type="curve"/>
      <point x="628" y="890"/>
      <point x="598" y="931"/>
      <point x="598" y="883" type="curve"/>
      <point x="598" y="859"/>
      <point x="609" y="815"/>
      <point x="655" y="815" type="curve"/>
      <point x="625" y="677"/>
      <point x="551" y="430"/>
      <point x="461" y="470" type="curve" smooth="yes"/>
      <point x="440" y="479"/>
      <point x="426" y="439"/>
      <point x="426" y="426" type="curve"/>
      <point x="426" y="398"/>
      <point x="482.13" y="391"/>
    </contour>
    <contour>
      <point x="850" y="177" type="curve"/>
      <point x="492.284" y="177"/>
      <point x="225" y="357.768"/>
      <point x="225" y="712" type="curve"/>
      <point x="225" y="1034"/>
      <point x="485" y="1419"/>
      <point x="1026" y="1419" type="curve"/>
      <point x="1336.59" y="1419"/>
      <point x="1514" y="1236.15"/>
      <point x="1514" y="930" type="curve"/>
      <point x="1514" y="521.982"/>
      <point x="1268.88" y="177"/>
    </contour>
    <contour>
      <point x="855" y="63" type="curve"/>
      <point x="1231" y="63"/>
      <point x="1657" y="349"/>
      <point x="1657" y="921" type="curve"/>
      <point x="1657" y="1314.47"/>
      <point x="1402.78" y="1532"/>
      <point x="1001" y="1532" type="curve"/>
      <point x="492.23" y="1532"/>
      <point x="96" y="1238.38"/>
      <point x="96" y="736" type="curve"/>
      <point x="96" y="307.266"/>
      <point x="410.542" y="63"/>
    </contour>
  </outline>
</glyph>
<glyph name="paragraph" format="1">
  <advance width="1308"/>
  <unicode hex="00B6"/>
  <outline>
    <contour>
      <point x="589" y="22" type="curve"/>
      <point x="637.633" y="22"/>
      <point x="676.782" y="37.5759"/>
      <point x="682.629" y="61.1574" type="curve"/>
      <point x="844.354" y="940.405" type="line"/>
      <point x="912.263" y="952.187"/>
      <point x="1021.39" y="955.929"/>
      <point x="1074.86" y="966.695" type="curve"/>
      <point x="940.026" y="92.8699" type="line"/>
      <point x="941.011" y="53.3672"/>
      <point x="969.443" y="30"/>
      <point x="1011" y="30" type="curve"/>
      <point x="1075.1" y="30"/>
      <point x="1116.81" y="77.1302"/>
      <point x="1132.05" y="133.879" type="curve"/>
      <point x="1223.44" y="469.626"/>
      <point x="1267.28" y="865.182"/>
      <point x="1328.42" y="1223.02" type="curve"/>
      <point x="1346.83" y="1331.43"/>
      <point x="1381" y="1431"/>
      <point x="1381" y="1519" type="curve"/>
      <point x="1381" y="1710.98"/>
      <point x="1097.98" y="1713"/>
      <point x="862" y="1713" type="curve"/>
      <point x="860" y="1713" type="line"/>
      <point x="545.234" y="1713"/>
      <point x="126" y="1589.42"/>
      <point x="126" y="1295" type="curve"/>
      <point x="126" y="1052.13"/>
      <point x="358.771" y="946.562"/>
      <point x="630.159" y="956.659" type="curve"/>
      <point x="579.489" y="630.328"/>
      <point x="495" y="154.999"/>
      <point x="495" y="81" type="curve"/>
      <point x="495" y="41.8161"/>
      <point x="536.122" y="22"/>
    </contour>
  </outline>
</glyph>
<glyph name="cedilla" format="1">
  <advance width="1184"/>
  <unicode hex="00B8"/>
  <outline>
    <contour>
      <point x="473" y="-486" type="curve"/>
      <point x="548.735" y="-486"/>
      <point x="601.764" y="-427"/>
      <point x="611.234" y="-357" type="curve"/>
      <point x="630.421" y="-217"/>
      <point x="685" y="32"/>
      <point x="666" y="61" type="curve"/>
      <point x="661" y="68"/>
      <point x="657.166" y="70.9999"/>
      <point x="640" y="70.9999" type="curve"/>
      <point x="624.279" y="70.9999"/>
      <point x="607.045" y="51.3898"/>
      <point x="598.095" y="34.3028" type="curve"/>
      <point x="570.503" y="-18"/>
      <point x="539.96" y="-64"/>
      <point x="514.143" y="-104" type="curve"/>
      <point x="460.379" y="-190"/>
      <point x="387" y="-281"/>
      <point x="387" y="-392" type="curve"/>
      <point x="387" y="-451"/>
      <point x="418.362" y="-486"/>
    </contour>
  </outline>
</glyph>
<glyph name="germandbls" format="1">
  <advance width="1281"/>
  <unicode hex="00DF"/>
  <outline>
    <contour>
      <point x="191" y="-128" type="curve"/>
      <point x="255.218" y="-128"/>
      <point x="302" y="-97"/>
      <point x="302" y="-39" type="curve"/>
      <point x="302" y="24.5163"/>
      <point x="300" y="86.5163"/>
      <point x="300" y="159" type="curve"/>
      <point x="300" y="652.139"/>
      <point x="305.277" y="1434"/>
      <point x="836" y="1434" type="curve"/>
      <point x="970.464" y="1434"/>
      <point x="1099" y="1378.43"/>
      <point x="1099" y="1232" type="curve"/>
      <point x="1099" y="1020"/>
      <point x="829" y="909"/>
      <point x="625" y="909" type="curve"/>
      <point x="560" y="909"/>
      <point x="552" y="884"/>
      <point x="552" y="844" type="curve"/>
      <point x="552" y="805"/>
      <point x="570" y="788"/>
      <point x="602" y="773" type="curve"/>
      <point x="744" y="710"/>
      <point x="1067" y="750.313"/>
      <point x="1067" y="489" type="curve"/>
      <point x="1067" y="295"/>
      <point x="850.285" y="181"/>
      <point x="633" y="181" type="curve"/>
      <point x="584.022" y="181"/>
      <point x="475" y="224"/>
      <point x="475" y="150" type="curve"/>
      <point x="475" y="119" type="line"/>
      <point x="475" y="54"/>
      <point x="608.368" y="33"/>
      <point x="685" y="33" type="curve"/>
      <point x="975.944" y="33"/>
      <point x="1231" y="230"/>
      <point x="1231" y="454" type="curve"/>
      <point x="1231" y="686"/>
      <point x="1103" y="811"/>
      <point x="823" y="835" type="curve"/>
      <point x="1073" y="841"/>
      <point x="1263" y="1002.58"/>
      <point x="1263" y="1240" type="curve"/>
      <point x="1263" y="1451.66"/>
      <point x="1063.98" y="1568"/>
      <point x="834" y="1568" type="curve"/>
      <point x="753.65" y="1568"/>
      <point x="686.403" y="1556.02"/>
      <point x="623.308" y="1530.21" type="curve"/>
      <point x="153.315" y="1338.95"/>
      <point x="94" y="605.816"/>
      <point x="94" y="-68" type="curve"/>
      <point x="94" y="-106"/>
      <point x="137.569" y="-128"/>
    </contour>
  </outline>
</glyph>
<glyph name="egrave" format="1">
  <advance width="842"/>
  <unicode hex="00E8"/>
  <outline>
    <contour>
      <point x="289" y="422" type="curve"/>
      <point x="289" y="587"/>
      <point x="420" y="775"/>
      <point x="564" y="775" type="curve" smooth="yes"/>
      <point x="612" y="775"/>
      <point x="656" y="751"/>
      <point x="649" y="681" type="curve" smooth="yes"/>
      <point x="638" y="571"/>
      <point x="409" y="464"/>
    </contour>
    <contour>
      <point x="461" y="-17" type="curve" smooth="yes"/>
      <point x="710" y="-24"/>
      <point x="945" y="131"/>
      <point x="1037" y="257" type="curve" smooth="yes"/>
      <point x="1102" y="345"/>
      <point x="995.999" y="419"/>
      <point x="952" y="376" type="curve" smooth="yes"/>
      <point x="716" y="149"/>
      <point x="364" y="97.9999"/>
      <point x="299" y="300" type="curve"/>
      <point x="633" y="388"/>
      <point x="827" y="494"/>
      <point x="827" y="717" type="curve" smooth="yes"/>
      <point x="827" y="873"/>
      <point x="706" y="966"/>
      <point x="552" y="966" type="curve" smooth="yes"/>
      <point x="271" y="966"/>
      <point x="64" y="648"/>
      <point x="64" y="377" type="curve" smooth="yes"/>
      <point x="64" y="105"/>
      <point x="261" y="-11"/>
    </contour>
    <contour>
      <point x="543" y="1082" type="curve" smooth="yes"/>
      <point x="578" y="1082"/>
      <point x="601" y="1113"/>
      <point x="601" y="1149" type="curve" smooth="yes"/>
      <point x="601" y="1167"/>
      <point x="598" y="1183"/>
      <point x="591" y="1197" type="curve"/>
      <point x="522" y="1348"/>
      <point x="466" y="1485"/>
      <point x="399" y="1640" type="curve" smooth="yes"/>
      <point x="383" y="1677"/>
      <point x="351" y="1704"/>
      <point x="304" y="1704" type="curve" smooth="yes"/>
      <point x="226" y="1704"/>
      <point x="159" y="1646"/>
      <point x="159" y="1568" type="curve" smooth="yes"/>
      <point x="159" y="1538"/>
      <point x="171" y="1506"/>
      <point x="196" y="1471" type="curve" smooth="yes"/>
      <point x="258" y="1386"/>
      <point x="330" y="1296"/>
      <point x="397" y="1214" type="curve" smooth="yes"/>
      <point x="432" y="1171"/>
      <point x="475" y="1082"/>
    </contour>
  </outline>
</glyph>
<glyph name="idieresis" format="1">
  <advance width="537"/>
  <unicode hex="00EF"/>
  <outline>
    <contour>
      <point x="51" y="1082" type="curve" smooth="yes"/>
      <point x="155" y="1082"/>
      <point x="213" y="1155"/>
      <point x="213" y="1256" type="curve" smooth="yes"/>
      <point x="213" y="1351"/>
      <point x="162" y="1404"/>
      <point x="68" y="1404" type="curve" smooth="yes"/>
      <point x="-35" y="1404"/>
      <point x="-90" y="1332"/>
      <point x="-90" y="1230" type="curve" smooth="yes"/>
      <point x="-90" y="1132"/>
      <point x="-42" y="1082"/>
    </contour>
    <contour>
      <point x="518" y="1082" type="curve" smooth="yes"/>
      <point x="623" y="1082"/>
      <point x="680" y="1154"/>
      <point x="680" y="1256" type="curve" smooth="yes"/>
      <point x="680" y="1351"/>
      <point x="630" y="1404"/>
      <point x="535" y="1404" type="curve" smooth="yes"/>
      <point x="432" y="1404"/>
      <point x="377" y="1332"/>
      <point x="377" y="1230" type="curve" smooth="yes"/>
      <point x="377" y="1133"/>
      <point x="427" y="1082"/>
    </contour>
    <contour>
      <point x="282" y="0" type="curve" smooth="yes"/>
      <point x="466" y="0"/>
      <point x="636" y="121"/>
      <point x="736" y="213" type="curve"/>
      <point x="736" y="416" type="line"/>
      <point x="658" y="352"/>
      <point x="534" y="192"/>
      <point x="403" y="192" type="curve" smooth="yes"/>
      <point x="357" y="192"/>
      <point x="352" y="240"/>
      <point x="352" y="290" type="curve" smooth="yes"/>
      <point x="352" y="514"/>
      <point x="486" y="695"/>
      <point x="486" y="903" type="curve" smooth="yes"/>
      <point x="486" y="945"/>
      <point x="462" y="960"/>
      <point x="414" y="960" type="curve" smooth="yes"/>
      <point x="335" y="960"/>
      <point x="248" y="928"/>
      <point x="232" y="863" type="curve" smooth="yes"/>
      <point x="182" y="661"/>
      <point x="95.9999" y="438"/>
      <point x="95.9999" y="201" type="curve" smooth="yes"/>
      <point x="95.9999" y="71"/>
      <point x="151" y="0"/>
    </contour>
  </outline>
</glyph>
<glyph name="yacute" format="1">
  <advance width="928"/>
  <unicode hex="00FD"/>
  <outline>
    <contour>
      <point x="470" y="1193" type="curve" smooth="yes"/>
      <point x="820" y="1525" type="line" smooth="yes"/>
      <point x="953" y="1651"/>
      <point x="725" y="1821"/>
      <point x="639" y="1675" type="curve" smooth="yes"/>
      <point x="386" y="1265" type="line" smooth="yes"/>
      <point x="332" y="1180"/>
      <point x="408" y="1134"/>
    </contour>
    <contour>
      <point x="191" y="-756" type="curve" smooth="yes"/>
      <point x="162" y="-752"/>
      <point x="148" y="-724"/>
      <point x="148" y="-699" type="curve" smooth="yes"/>
      <point x="148" y="-684"/>
      <point x="153" y="-664"/>
      <point x="164" y="-641" type="curve" smooth="yes"/>
      <point x="234" y="-489"/>
      <point x="401" y="-324"/>
      <point x="544" y="-236" type="curve"/>
      <point x="510" y="-397"/>
      <point x="393" y="-786"/>
    </contour>
    <contour>
      <point x="178" y="-928" type="curve" smooth="yes"/>
      <point x="617" y="-928"/>
      <point x="734" y="-460"/>
      <point x="801" y="-108" type="curve"/>
      <point x="1006" y="31"/>
      <point x="1234" y="139"/>
      <point x="1373" y="235" type="curve" smooth="yes"/>
      <point x="1494" y="320"/>
      <point x="1410" y="433"/>
      <point x="1317" y="413" type="curve" smooth="yes"/>
      <point x="1221" y="392"/>
      <point x="975.999" y="229"/>
      <point x="836" y="114" type="curve"/>
      <point x="854" y="227"/>
      <point x="873" y="313"/>
      <point x="891" y="412" type="curve" smooth="yes"/>
      <point x="916" y="553"/>
      <point x="976.999" y="718"/>
      <point x="976.999" y="853" type="curve" smooth="yes"/>
      <point x="976.999" y="893"/>
      <point x="941" y="909"/>
      <point x="898" y="909" type="curve" smooth="yes"/>
      <point x="798" y="909"/>
      <point x="740" y="846"/>
      <point x="718" y="768" type="curve" smooth="yes"/>
      <point x="645" y="474" type="line" smooth="yes"/>
      <point x="620" y="381"/>
      <point x="568" y="192"/>
      <point x="438" y="192" type="curve" smooth="yes"/>
      <point x="360" y="192"/>
      <point x="344" y="260"/>
      <point x="344" y="324" type="curve" smooth="yes"/>
      <point x="344" y="454"/>
      <point x="381" y="584"/>
      <point x="416" y="692" type="curve" smooth="yes"/>
      <point x="437" y="751"/>
      <point x="474" y="793"/>
      <point x="474" y="852" type="curve" smooth="yes"/>
      <point x="474" y="900"/>
      <point x="426" y="924"/>
      <point x="375" y="924" type="curve" smooth="yes"/>
      <point x="303" y="924"/>
      <point x="240" y="881"/>
      <point x="213" y="832" type="curve" smooth="yes"/>
      <point x="131" y="677"/>
      <point x="74" y="513"/>
      <point x="74" y="281" type="curve" smooth="yes"/>
      <point x="74" y="123"/>
      <point x="179" y="-2"/>
      <point x="346" y="-2" type="curve" smooth="yes"/>
      <point x="445" y="-2"/>
      <point x="620" y="75"/>
      <point x="630" y="185" type="curve"/>
      <point x="561" y="-28" type="line"/>
      <point x="407" y="-144"/>
      <point x="256" y="-237"/>
      <point x="132" y="-378" type="curve" smooth="yes"/>
      <point x="54" y="-466"/>
      <point x="-64" y="-588"/>
      <point x="-64" y="-729" type="curve" smooth="yes"/>
      <point x="-64" y="-870"/>
      <point x="31" y="-928"/>
    </contour>
  </outline>
</glyph>
<glyph name="thorn" format="1">
  <advance width="1023"/>
  <unicode hex="00FE"/>
  <outline>
    <contour>
      <point x="266" y="207" type="curve"/>
      <point x="318" y="429"/>
      <point x="352" y="757"/>
      <point x="561" y="757" type="curve"/>
      <point x="661.871" y="757"/>
      <point x="716" y="706.93"/>
      <point x="716" y="607" type="curve"/>
      <point x="716" y="307"/>
      <point x="611" y="93"/>
    </contour>
    <contour>
      <point x="53" y="-668" type="curve"/>
      <point x="95.4091" y="-668"/>
      <point x="110.196" y="-650"/>
      <point x="119.52" y="-610" type="curve"/>
      <point x="248.828" y="83.5656" type="line"/>
      <point x="434.607" y="14.4949"/>
      <point x="604" y="-12"/>
      <point x="731" y="119" type="curve"/>
      <point x="1015" y="203"/>
      <point x="1166" y="338"/>
      <point x="1143" y="374" type="curve"/>
      <point x="1122" y="409" type="line"/>
      <point x="1103" y="445"/>
      <point x="987" y="308"/>
      <point x="795" y="268" type="curve"/>
      <point x="872" y="373"/>
      <point x="890" y="476.295"/>
      <point x="890" y="649" type="curve"/>
      <point x="890" y="802.225"/>
      <point x="824" y="953"/>
      <point x="647" y="953" type="curve"/>
      <point x="585" y="953"/>
      <point x="461" y="919"/>
      <point x="363" y="830" type="curve"/>
      <point x="461.392" y="1324.41" type="line"/>
      <point x="471.185" y="1379.08"/>
      <point x="552.083" y="1416.13"/>
      <point x="553.708" y="1419.32" type="curve"/>
      <point x="572.869" y="1457.06"/>
      <point x="428.004" y="1536"/>
      <point x="367" y="1536" type="curve"/>
      <point x="338.286" y="1536"/>
      <point x="324.97" y="1510.39"/>
      <point x="312.034" y="1465.12" type="curve"/>
      <point x="245.407" y="1232.42"/>
      <point x="199.713" y="967.194"/>
      <point x="177.77" y="805.62" type="curve"/>
      <point x="107.472" y="290.43"/>
      <point x="-41" y="-170"/>
      <point x="-41" y="-563" type="curve"/>
      <point x="-41" y="-647"/>
      <point x="-10" y="-668"/>
    </contour>
  </outline>
</glyph>
<glyph name="lslash" format="1">
  <advance width="575"/>
  <unicode hex="0142"/>
  <outline>
    <contour>
      <point x="422" y="1316" type="curve"/>
      <point x="472" y="1495"/>
      <point x="546" y="1641"/>
      <point x="652" y="1641" type="curve" smooth="yes"/>
      <point x="673" y="1641"/>
      <point x="683" y="1620"/>
      <point x="683" y="1593" type="curve" smooth="yes"/>
      <point x="683" y="1520"/>
      <point x="650" y="1425"/>
      <point x="628" y="1360" type="curve"/>
      <point x="559" y="1345"/>
      <point x="490" y="1331"/>
    </contour>
    <contour>
      <point x="351" y="0" type="curve" smooth="yes"/>
      <point x="374" y="0"/>
      <point x="398" y="4"/>
      <point x="424" y="9.99999" type="curve" smooth="yes"/>
      <point x="590" y="50"/>
      <point x="715" y="137"/>
      <point x="840" y="227" type="curve"/>
      <point x="758" y="437" type="line"/>
      <point x="712" y="400"/>
      <point x="668" y="368"/>
      <point x="626" y="340" type="curve" smooth="yes"/>
      <point x="573" y="305"/>
      <point x="499" y="244"/>
      <point x="418" y="244" type="curve" smooth="yes"/>
      <point x="362" y="244"/>
      <point x="352" y="397"/>
      <point x="352" y="461" type="curve" smooth="yes"/>
      <point x="352" y="498"/>
      <point x="355" y="546"/>
      <point x="370" y="565" type="curve" smooth="yes"/>
      <point x="433" y="644"/>
      <point x="496" y="729"/>
      <point x="556" y="821" type="curve" smooth="yes"/>
      <point x="627" y="930"/>
      <point x="703" y="1054"/>
      <point x="762" y="1193" type="curve"/>
      <point x="858" y="1214" type="line" smooth="yes"/>
      <point x="949" y="1234"/>
      <point x="1060" y="1237"/>
      <point x="1060" y="1338" type="curve" smooth="yes"/>
      <point x="1060" y="1397"/>
      <point x="1035" y="1434"/>
      <point x="978.999" y="1434" type="curve" smooth="yes"/>
      <point x="967" y="1434"/>
      <point x="956" y="1433"/>
      <point x="947" y="1430" type="curve"/>
      <point x="910" y="1422"/>
      <point x="872" y="1413"/>
      <point x="834" y="1405" type="curve"/>
      <point x="857" y="1496"/>
      <point x="871" y="1593"/>
      <point x="871" y="1694" type="curve" smooth="yes"/>
      <point x="871" y="1810"/>
      <point x="842" y="1920"/>
      <point x="727" y="1920" type="curve" smooth="yes"/>
      <point x="587" y="1920"/>
      <point x="494" y="1837"/>
      <point x="424" y="1748" type="curve" smooth="yes"/>
      <point x="326" y="1624"/>
      <point x="249" y="1459"/>
      <point x="194" y="1269" type="curve"/>
      <point x="88" y="1252"/>
      <point x="-99" y="1237"/>
      <point x="-99" y="1144" type="curve" smooth="yes"/>
      <point x="-99" y="1087"/>
      <point x="-65" y="1031"/>
      <point x="-5" y="1031" type="curve" smooth="yes"/>
      <point x="3" y="1031"/>
      <point x="12" y="1032"/>
      <point x="22" y="1034" type="curve" smooth="yes"/>
      <point x="62" y="1042"/>
      <point x="103" y="1051"/>
      <point x="144" y="1060" type="curve"/>
      <point x="111" y="888"/>
      <point x="93.9999" y="703"/>
      <point x="93.9999" y="519" type="curve" smooth="yes"/>
      <point x="93.9999" y="320"/>
      <point x="161" y="0"/>
    </contour>
    <contour>
      <point x="342" y="740" type="curve"/>
      <point x="342" y="825"/>
      <point x="353" y="965"/>
      <point x="377" y="1110" type="curve"/>
      <point x="434" y="1122"/>
      <point x="490" y="1134"/>
      <point x="547" y="1146" type="curve"/>
      <point x="485" y="1002"/>
      <point x="414" y="866"/>
    </contour>
  </outline>
</glyph>
<glyph name="circumflex" format="1">
  <advance width="864"/>
  <unicode hex="02C6"/>
  <outline>
    <contour>
      <point x="635" y="1050" type="curve"/>
      <point x="697.128" y="1050"/>
      <point x="732" y="1082.98"/>
      <point x="732" y="1133" type="curve"/>
      <point x="732" y="1245.07"/>
      <point x="696.256" y="1332.02"/>
      <point x="672.696" y="1439.57" type="curve"/>
      <point x="647.472" y="1554.6"/>
      <point x="631.089" y="1666"/>
      <point x="537" y="1666" type="curve"/>
      <point x="405.999" y="1666"/>
      <point x="378.851" y="1565.05"/>
      <point x="318.653" y="1466.45" type="curve"/>
      <point x="185.331" y="1246.56"/>
      <point x="114.071" y="1138.61"/>
      <point x="111.904" y="1112.61" type="curve"/>
      <point x="109.09" y="1077.42"/>
      <point x="126.52" y="1054"/>
      <point x="172" y="1054" type="curve"/>
      <point x="231.485" y="1054"/>
      <point x="254.197" y="1090.64"/>
      <point x="288.841" y="1164.74" type="curve"/>
      <point x="367" y="1331"/>
      <point x="426" y="1457"/>
      <point x="510" y="1554" type="curve"/>
      <point x="560" y="1470"/>
      <point x="536.095" y="1050"/>
    </contour>
  </outline>
</glyph>
<glyph name="tilde" format="1">
  <advance width="960"/>
  <unicode hex="02DC"/>
  <outline>
    <contour>
      <point x="646" y="1095" type="curve"/>
      <point x="741.728" y="1095"/>
      <point x="852" y="1221.06"/>
      <point x="852" y="1317" type="curve"/>
      <point x="852" y="1338.59"/>
      <point x="837.578" y="1350"/>
      <point x="809" y="1350" type="curve"/>
      <point x="724.921" y="1350"/>
      <point x="709.318" y="1232.99"/>
      <point x="629.855" y="1175" type="curve"/>
      <point x="566.741" y="1223.39"/>
      <point x="518.305" y="1263.63"/>
      <point x="481.077" y="1292.71" type="curve"/>
      <point x="419.518" y="1341.75"/>
      <point x="382.236" y="1383"/>
      <point x="310" y="1383" type="curve"/>
      <point x="214.272" y="1383"/>
      <point x="104" y="1256.94"/>
      <point x="104" y="1161" type="curve"/>
      <point x="104" y="1139.41"/>
      <point x="118.422" y="1128"/>
      <point x="147" y="1128" type="curve"/>
      <point x="226.948" y="1128"/>
      <point x="260.608" y="1252.96"/>
      <point x="324.35" y="1304.38" type="curve"/>
      <point x="388.341" y="1255.37"/>
      <point x="437.345" y="1214.65"/>
      <point x="474.923" y="1185.29" type="curve"/>
      <point x="536.482" y="1136.25"/>
      <point x="573.764" y="1095"/>
    </contour>
  </outline>
</glyph>
<glyph name="quotedblright" format="1">
  <advance width="1184"/>
  <unicode hex="201D"/>
  <outline>
    <contour>
      <point x="609" y="1196" type="curve"/>
      <point x="650" y="1196"/>
      <point x="680" y="1232"/>
      <point x="694" y="1277" type="curve"/>
      <point x="742" y="1413"/>
      <point x="828" y="1596"/>
      <point x="831" y="1750" type="curve"/>
      <point x="832" y="1808"/>
      <point x="794" y="1837"/>
      <point x="735" y="1838" type="curve"/>
      <point x="665" y="1840"/>
      <point x="576" y="1800"/>
      <point x="597" y="1734" type="curve"/>
      <point x="634" y="1586"/>
      <point x="560" y="1431"/>
      <point x="557" y="1273" type="curve"/>
      <point x="556" y="1227"/>
      <point x="576" y="1197"/>
    </contour>
    <contour>
      <point x="242" y="1203" type="curve"/>
      <point x="283" y="1202"/>
      <point x="313" y="1239"/>
      <point x="327" y="1284" type="curve"/>
      <point x="376" y="1420"/>
      <point x="462" y="1602"/>
      <point x="465" y="1756" type="curve"/>
      <point x="466" y="1814"/>
      <point x="427" y="1844"/>
      <point x="368" y="1845" type="curve"/>
      <point x="298" y="1846"/>
      <point x="212" y="1807"/>
      <point x="230" y="1740" type="curve"/>
      <point x="263" y="1580"/>
      <point x="193" y="1438"/>
      <point x="190" y="1280" type="curve"/>
      <point x="190" y="1234"/>
      <point x="209" y="1204"/>
    </contour>
  </outline>
</glyph>
<glyph name="guilsinglright" format="1">
  <advance width="1089"/>
  <unicode hex="203A"/>
  <outline>
    <contour>
      <point x="318" y="73" type="curve" smooth="yes"/>
      <point x="338" y="73"/>
      <point x="359" y="78"/>
      <point x="382" y="87" type="curve" smooth="yes"/>
      <point x="563" y="165"/>
      <point x="737" y="262"/>
      <point x="896" y="352" type="curve" smooth="yes"/>
      <point x="974.999" y="398"/>
      <point x="1039" y="452"/>
      <point x="1039" y="570" type="curve" smooth="yes"/>
      <point x="1039" y="678"/>
      <point x="937" y="740"/>
      <point x="838" y="778" type="curve" smooth="yes"/>
      <point x="340" y="987.999" type="line" smooth="yes"/>
      <point x="324" y="994.999"/>
      <point x="307" y="998.999"/>
      <point x="287" y="998.999" type="curve" smooth="yes"/>
      <point x="225" y="998.999"/>
      <point x="175" y="958"/>
      <point x="175" y="896" type="curve" smooth="yes"/>
      <point x="175" y="835"/>
      <point x="222" y="797"/>
      <point x="274" y="773" type="curve" smooth="yes"/>
      <point x="800" y="544" type="line"/>
      <point x="331" y="313" type="line" smooth="yes"/>
      <point x="277" y="287"/>
      <point x="206" y="236"/>
      <point x="206" y="158" type="curve" smooth="yes"/>
      <point x="206" y="107"/>
      <point x="264" y="73"/>
    </contour>
  </outline>
</glyph>
<glyph name="Euro" format="1">
  <advance width="1857"/>
  <unicode hex="20AC"/>
  <outline>
    <contour>
      <point x="700" y="-192" type="curve" smooth="yes"/>
      <point x="1025" y="-192"/>
      <point x="1275" y="-25"/>
      <point x="1455" y="131" type="curve" smooth="yes"/>
      <point x="1481" y="153"/>
      <point x="1504" y="181"/>
      <point x="1504" y="221" type="curve" smooth="yes"/>
      <point x="1504" y="277"/>
      <point x="1460" y="321"/>
      <point x="1405" y="321" type="curve" smooth="yes"/>
      <point x="1387" y="321"/>
      <point x="1368" y="318"/>
      <point x="1353" y="305" type="curve" smooth="yes"/>
      <point x="1211" y="187"/>
      <point x="1004" y="62"/>
      <point x="752" y="62" type="curve"/>
      <point x="628" y="200"/>
      <point x="384" y="217"/>
      <point x="384" y="472" type="curve" smooth="yes"/>
      <point x="384" y="492" type="line" smooth="yes"/>
      <point x="384" y="498"/>
      <point x="384" y="505"/>
      <point x="385" y="512" type="curve"/>
      <point x="768" y="512" type="line" smooth="yes"/>
      <point x="851" y="512"/>
      <point x="896" y="548"/>
      <point x="896" y="628" type="curve" smooth="yes"/>
      <point x="896" y="682"/>
      <point x="853" y="704"/>
      <point x="801" y="704" type="curve" smooth="yes"/>
      <point x="413" y="704" type="line"/>
      <point x="423" y="749"/>
      <point x="434" y="790"/>
      <point x="448" y="832" type="curve"/>
      <point x="833" y="832" type="line" smooth="yes"/>
      <point x="916" y="832"/>
      <point x="961" y="868"/>
      <point x="961" y="948" type="curve" smooth="yes"/>
      <point x="961" y="1002"/>
      <point x="918" y="1024"/>
      <point x="866" y="1024" type="curve" smooth="yes"/>
      <point x="521" y="1024" type="line"/>
      <point x="553" y="1096"/>
      <point x="590" y="1164"/>
      <point x="632" y="1230" type="curve" smooth="yes"/>
      <point x="724" y="1376"/>
      <point x="866" y="1568"/>
      <point x="1088" y="1568" type="curve" smooth="yes"/>
      <point x="1230" y="1568"/>
      <point x="1333" y="1527"/>
      <point x="1333" y="1390" type="curve" smooth="yes"/>
      <point x="1333" y="1282"/>
      <point x="1269" y="1200"/>
      <point x="1269" y="1108" type="curve" smooth="yes"/>
      <point x="1269" y="1102" type="line" smooth="yes"/>
      <point x="1269" y="1050"/>
      <point x="1359" y="1026"/>
      <point x="1412" y="1026" type="curve" smooth="yes"/>
      <point x="1427" y="1026"/>
      <point x="1444" y="1036"/>
      <point x="1463" y="1058" type="curve" smooth="yes"/>
      <point x="1526" y="1132"/>
      <point x="1572" y="1268"/>
      <point x="1572" y="1405" type="curve" smooth="yes"/>
      <point x="1572" y="1669"/>
      <point x="1397" y="1792"/>
      <point x="1123" y="1792" type="curve" smooth="yes"/>
      <point x="1056" y="1792"/>
      <point x="991.999" y="1782"/>
      <point x="929" y="1762" type="curve" smooth="yes"/>
      <point x="582" y="1653"/>
      <point x="363" y="1343"/>
      <point x="223" y="1024" type="curve"/>
      <point x="96.9999" y="1024" type="line" smooth="yes"/>
      <point x="35" y="1024"/>
      <point x="0" y="999.999"/>
      <point x="0" y="941" type="curve" smooth="yes"/>
      <point x="0" y="875"/>
      <point x="29" y="832"/>
      <point x="96.9999" y="832" type="curve" smooth="yes"/>
      <point x="153" y="832" type="line"/>
      <point x="140" y="790"/>
      <point x="129" y="749"/>
      <point x="121" y="704" type="curve"/>
      <point x="32" y="704" type="line" smooth="yes"/>
      <point x="-30" y="704"/>
      <point x="-65" y="680"/>
      <point x="-65" y="621" type="curve" smooth="yes"/>
      <point x="-65" y="555"/>
      <point x="-36" y="512"/>
      <point x="32" y="512" type="curve" smooth="yes"/>
      <point x="96.9999" y="512" type="line"/>
      <point x="95.9999" y="507"/>
      <point x="95.9999" y="502"/>
      <point x="95.9999" y="497" type="curve" smooth="yes"/>
      <point x="95.9999" y="482" type="line" smooth="yes"/>
      <point x="95.9999" y="73"/>
      <point x="297" y="-192"/>
    </contour>
  </outline>
</glyph>
<glyph name="Ph" format="1">
  <advance width="2585"/>
  <outline>
    <contour>
      <point x="570" y="-60" type="curve" smooth="yes"/>
      <point x="395" y="-60"/>
      <point x="375" y="358"/>
      <point x="375" y="647" type="curve" smooth="yes"/>
      <point x="375" y="1140"/>
      <point x="510" y="1736"/>
      <point x="998.999" y="1765" type="curve" smooth="yes"/>
      <point x="1422" y="1790"/>
      <point x="1605" y="1586"/>
      <point x="1605" y="1416" type="curve" smooth="yes"/>
      <point x="1605" y="1249"/>
      <point x="1484" y="1007"/>
      <point x="1043" y="957" type="curve"/>
      <point x="1054" y="1092"/>
      <point x="1175" y="1280"/>
      <point x="1208" y="1393" type="curve"/>
      <point x="1208" y="1400"/>
      <point x="1209" y="1400"/>
      <point x="1209" y="1409" type="curve" smooth="yes"/>
      <point x="1209" y="1469"/>
      <point x="1142" y="1492"/>
      <point x="1083" y="1492" type="curve" smooth="yes"/>
      <point x="885" y="1492"/>
      <point x="874" y="1224"/>
      <point x="804" y="966" type="curve"/>
      <point x="745" y="978.999"/>
      <point x="638" y="1051"/>
      <point x="576" y="1051" type="curve" smooth="yes"/>
      <point x="533" y="1051"/>
      <point x="533" y="996.999"/>
      <point x="533" y="954" type="curve" smooth="yes"/>
      <point x="533" y="813"/>
      <point x="660" y="785"/>
      <point x="772" y="740" type="curve"/>
      <point x="710" y="309"/>
      <point x="731" y="-60"/>
    </contour>
    <contour>
      <point x="536" y="-293" type="curve" smooth="yes"/>
      <point x="844" y="-293"/>
      <point x="929" y="-15"/>
      <point x="969.999" y="345" type="curve" smooth="yes"/>
      <point x="981.999" y="447"/>
      <point x="1022" y="747"/>
      <point x="1020" y="747" type="curve"/>
      <point x="1683" y="821"/>
      <point x="1882" y="1164"/>
      <point x="1882" y="1437" type="curve" smooth="yes"/>
      <point x="1882" y="1724"/>
      <point x="1588" y="2020"/>
      <point x="1022" y="2000" type="curve" smooth="yes"/>
      <point x="405" y="1978"/>
      <point x="118" y="1400"/>
      <point x="118" y="647" type="curve" smooth="yes"/>
      <point x="118" y="154"/>
      <point x="216" y="-293"/>
    </contour>
    <contour>
      <point x="1940" y="838" type="curve"/>
      <point x="1975" y="1051"/>
      <point x="2141" y="1719"/>
      <point x="2337" y="1678" type="curve" smooth="yes"/>
      <point x="2364" y="1672"/>
      <point x="2372" y="1652"/>
      <point x="2370" y="1608" type="curve"/>
      <point x="2355" y="1434"/>
      <point x="2176" y="1081"/>
    </contour>
    <contour>
      <point x="1714" y="0" type="curve" smooth="yes"/>
      <point x="1802" y="-17"/>
      <point x="1835" y="39"/>
      <point x="1868" y="112" type="curve" smooth="yes"/>
      <point x="1958" y="313"/>
      <point x="2071" y="455"/>
      <point x="2156" y="561" type="curve" smooth="yes"/>
      <point x="2278" y="713"/>
      <point x="2119" y="429"/>
      <point x="2103" y="185" type="curve" smooth="yes"/>
      <point x="2093" y="34"/>
      <point x="2187" y="-20"/>
      <point x="2322" y="0" type="curve" smooth="yes"/>
      <point x="2490" y="25"/>
      <point x="2637" y="123"/>
      <point x="2738" y="196" type="curve" smooth="yes"/>
      <point x="2780" y="228"/>
      <point x="2796" y="271"/>
      <point x="2796" y="311" type="curve" smooth="yes"/>
      <point x="2796" y="367"/>
      <point x="2766" y="415"/>
      <point x="2730" y="415" type="curve" smooth="yes"/>
      <point x="2722" y="415"/>
      <point x="2714" y="412"/>
      <point x="2706" y="407" type="curve"/>
      <point x="2680" y="383"/>
      <point x="2446" y="194"/>
      <point x="2369" y="194" type="curve" smooth="yes"/>
      <point x="2354" y="194"/>
      <point x="2345" y="200"/>
      <point x="2345" y="213" type="curve" smooth="yes"/>
      <point x="2345" y="347"/>
      <point x="2482" y="606"/>
      <point x="2550" y="807" type="curve" smooth="yes"/>
      <point x="2580" y="897"/>
      <point x="2515" y="966"/>
      <point x="2421" y="966" type="curve" smooth="yes"/>
      <point x="2332" y="966"/>
      <point x="2194" y="857"/>
      <point x="1888" y="480" type="curve"/>
      <point x="1934" y="651" type="line"/>
      <point x="2439" y="1134"/>
      <point x="2554" y="1434"/>
      <point x="2584" y="1664" type="curve"/>
      <point x="2596" y="1812"/>
      <point x="2523" y="1920"/>
      <point x="2388" y="1920" type="curve" smooth="yes"/>
      <point x="1929" y="1920"/>
      <point x="1691" y="900"/>
      <point x="1645" y="333" type="curve" smooth="yes"/>
      <point x="1636" y="236"/>
      <point x="1620" y="18"/>
    </contour>
  </outline>
</glyph>
<glyph name="f.init" format="1">
  <advance width="867"/>
  <outline>
    <contour>
      <point x="450" y="-604" type="curve" smooth="yes"/>
      <point x="710" y="-604"/>
      <point x="813" y="-267"/>
      <point x="813" y="-29" type="curve" smooth="yes"/>
      <point x="813" y="154"/>
      <point x="750" y="305"/>
      <point x="694" y="427" type="curve"/>
      <point x="896" y="434"/>
      <point x="1170" y="453"/>
      <point x="1170" y="652" type="curve" smooth="yes"/>
      <point x="1170" y="691"/>
      <point x="1157" y="721"/>
      <point x="1134" y="721" type="curve" smooth="yes"/>
      <point x="1128" y="721"/>
      <point x="1123" y="719"/>
      <point x="1116" y="715" type="curve" smooth="yes"/>
      <point x="977.999" y="638"/>
      <point x="906" y="587"/>
      <point x="739" y="587" type="curve" smooth="yes"/>
      <point x="700" y="587"/>
      <point x="654" y="593"/>
      <point x="625" y="603" type="curve"/>
      <point x="822" y="833"/>
      <point x="1162" y="1243"/>
      <point x="1162" y="1624" type="curve" smooth="yes"/>
      <point x="1162" y="1762"/>
      <point x="1087" y="1856"/>
      <point x="962" y="1856" type="curve" smooth="yes"/>
      <point x="562" y="1856"/>
      <point x="350" y="1166"/>
      <point x="263" y="570" type="curve"/>
      <point x="133" y="442"/>
      <point x="20" y="364"/>
      <point x="-193" y="219" type="curve" smooth="yes"/>
      <point x="-203" y="212"/>
      <point x="-207" y="203"/>
      <point x="-207" y="191" type="curve" smooth="yes"/>
      <point x="-207" y="146"/>
      <point x="-144" y="77"/>
      <point x="-99" y="77" type="curve" smooth="yes"/>
      <point x="-90" y="77"/>
      <point x="-83" y="81"/>
      <point x="-76" y="85" type="curve" smooth="yes"/>
      <point x="37" y="154"/>
      <point x="138" y="225"/>
      <point x="231" y="302" type="curve"/>
      <point x="219" y="173"/>
      <point x="214" y="56"/>
      <point x="214" y="-38" type="curve" smooth="yes"/>
      <point x="214" y="-276"/>
      <point x="242" y="-604"/>
    </contour>
    <contour>
      <point x="482" y="-379" type="curve" smooth="yes"/>
      <point x="443" y="-379"/>
      <point x="439" y="-187"/>
      <point x="439" y="-47" type="curve" smooth="yes"/>
      <point x="439" y="144"/>
      <point x="457" y="330"/>
      <point x="466" y="522" type="curve"/>
      <point x="538" y="384"/>
      <point x="602" y="187"/>
      <point x="602" y="-57" type="curve" smooth="yes"/>
      <point x="602" y="-62" type="line" smooth="yes"/>
      <point x="602" y="-173"/>
      <point x="601" y="-379"/>
    </contour>
    <contour>
      <point x="510" y="686" type="curve"/>
      <point x="536" y="775"/>
      <point x="696" y="1631"/>
      <point x="925" y="1631" type="curve" smooth="yes"/>
      <point x="966" y="1631"/>
      <point x="974.999" y="1583"/>
      <point x="974.999" y="1529" type="curve" smooth="yes"/>
      <point x="974.999" y="1266"/>
      <point x="666" y="879"/>
    </contour>
  </outline>
</glyph>
<glyph name="h.fina" format="1">
  <advance width="1193"/>
  <outline>
    <contour>
      <point x="771" y="0" type="line"/>
      <point x="1023" y="0"/>
      <point x="1243" y="132"/>
      <point x="1384" y="232" type="curve" smooth="yes"/>
      <point x="1442" y="273"/>
      <point x="1454" y="316"/>
      <point x="1454" y="350" type="curve" smooth="yes"/>
      <point x="1454" y="387"/>
      <point x="1430" y="414"/>
      <point x="1389" y="414" type="curve" smooth="yes"/>
      <point x="1358" y="414"/>
      <point x="1324" y="394"/>
      <point x="1274" y="363" type="curve" smooth="yes"/>
      <point x="1172" y="300"/>
      <point x="933" y="194"/>
      <point x="818" y="194" type="curve"/>
    </contour>
    <contour>
      <point x="389" y="838" type="curve"/>
      <point x="424" y="1051"/>
      <point x="590" y="1719"/>
      <point x="786" y="1678" type="curve" smooth="yes"/>
      <point x="813" y="1672"/>
      <point x="821" y="1652"/>
      <point x="819" y="1608" type="curve"/>
      <point x="804" y="1434"/>
      <point x="625" y="1081"/>
    </contour>
    <contour>
      <point x="163" y="0" type="curve" smooth="yes"/>
      <point x="251" y="-17"/>
      <point x="284" y="39"/>
      <point x="317" y="112" type="curve" smooth="yes"/>
      <point x="407" y="313"/>
      <point x="520" y="455"/>
      <point x="605" y="561" type="curve" smooth="yes"/>
      <point x="727" y="713"/>
      <point x="568" y="429"/>
      <point x="552" y="185" type="curve" smooth="yes"/>
      <point x="542" y="34"/>
      <point x="636" y="-20"/>
      <point x="771" y="0" type="curve"/>
      <point x="818" y="194" type="line"/>
      <point x="803" y="194"/>
      <point x="794" y="200"/>
      <point x="794" y="213" type="curve" smooth="yes"/>
      <point x="794" y="347"/>
      <point x="931" y="606"/>
      <point x="998.999" y="807" type="curve" smooth="yes"/>
      <point x="1029" y="897"/>
      <point x="964" y="966"/>
      <point x="870" y="966" type="curve" smooth="yes"/>
      <point x="781" y="966"/>
      <point x="643" y="857"/>
      <point x="337" y="480" type="curve"/>
      <point x="383" y="651" type="line"/>
      <point x="888" y="1134"/>
      <point x="1003" y="1434"/>
      <point x="1033" y="1664" type="curve"/>
      <point x="1045" y="1812"/>
      <point x="971.999" y="1920"/>
      <point x="837" y="1920" type="curve" smooth="yes"/>
      <point x="378" y="1920"/>
      <point x="140" y="900"/>
      <point x="93.9999" y="333" type="curve" smooth="yes"/>
      <point x="85" y="236"/>
      <point x="69" y="18"/>
    </contour>
  </outline>
</glyph>
<glyph name="k.init" format="1">
  <advance width="1169"/>
  <outline>
    <contour>
      <point x="125" y="526" type="curve"/>
      <point x="369" y="584" type="line"/>
      <point x="676" y="825"/>
      <point x="1008" y="1275"/>
      <point x="1039" y="1696" type="curve" smooth="yes"/>
      <point x="1049" y="1818"/>
      <point x="970.999" y="1920"/>
      <point x="842" y="1920" type="curve" smooth="yes"/>
      <point x="422" y="1920"/>
      <point x="165" y="1032"/>
    </contour>
    <contour>
      <point x="383" y="803" type="curve"/>
      <point x="427" y="1100"/>
      <point x="589" y="1680"/>
      <point x="774" y="1680" type="curve" smooth="yes"/>
      <point x="810" y="1680"/>
      <point x="824" y="1662"/>
      <point x="824" y="1620" type="curve" smooth="yes"/>
      <point x="824" y="1383"/>
      <point x="578" y="1027"/>
    </contour>
    <contour>
      <point x="224" y="-11" type="curve" smooth="yes"/>
      <point x="401" y="-11"/>
      <point x="684" y="751"/>
      <point x="898" y="718" type="curve" smooth="yes"/>
      <point x="930" y="713"/>
      <point x="932" y="688"/>
      <point x="930" y="672" type="curve" smooth="yes"/>
      <point x="919" y="560"/>
      <point x="600" y="515"/>
      <point x="570" y="247" type="curve" smooth="yes"/>
      <point x="550" y="66"/>
      <point x="703" y="0.999999"/>
      <point x="845" y="0.999999" type="curve" smooth="yes"/>
      <point x="1029" y="0.999999"/>
      <point x="1240" y="158"/>
      <point x="1331" y="293" type="curve" smooth="yes"/>
      <point x="1366" y="345"/>
      <point x="1295" y="494"/>
      <point x="1233" y="419" type="curve"/>
      <point x="1233" y="419"/>
      <point x="1018" y="162"/>
      <point x="873" y="162" type="curve" smooth="yes"/>
      <point x="818" y="162"/>
      <point x="756" y="187"/>
      <point x="780" y="265" type="curve" smooth="yes"/>
      <point x="811" y="366"/>
      <point x="1141" y="512"/>
      <point x="1162" y="723" type="curve" smooth="yes"/>
      <point x="1175" y="854"/>
      <point x="1108" y="939"/>
      <point x="977.999" y="941" type="curve" smooth="yes"/>
      <point x="742" y="944"/>
      <point x="543" y="702"/>
      <point x="334" y="349" type="curve"/>
      <point x="369" y="584" type="line"/>
      <point x="125" y="526" type="line"/>
      <point x="120" y="426"/>
      <point x="123" y="330"/>
      <point x="123" y="230" type="curve" smooth="yes"/>
      <point x="123" y="134"/>
      <point x="140" y="-11"/>
    </contour>
    <contour>
      <point x="66" y="440" type="curve" smooth="yes"/>
      <point x="140" y="467"/>
      <point x="236" y="518"/>
      <point x="226" y="524" type="curve"/>
      <point x="203" y="700" type="line"/>
      <point x="203" y="700"/>
      <point x="97.9999" y="650"/>
      <point x="19" y="623" type="curve" smooth="yes"/>
      <point x="-61" y="595"/>
      <point x="-7" y="412"/>
    </contour>
  </outline>
</glyph>
<glyph name="n.fina" format="1">
  <advance width="947"/>
  <outline>
    <contour>
      <point x="792" y="-12" type="curve" smooth="yes"/>
      <point x="888" y="-12"/>
      <point x="1141" y="57"/>
      <point x="1241" y="245" type="curve" smooth="yes"/>
      <point x="1257" y="276"/>
      <point x="1187" y="416"/>
      <point x="1128" y="349" type="curve" smooth="yes"/>
      <point x="1080" y="294"/>
      <point x="939" y="179"/>
      <point x="877" y="179" type="curve" smooth="yes"/>
      <point x="825" y="179"/>
      <point x="793" y="235"/>
      <point x="793" y="300" type="curve" smooth="yes"/>
      <point x="793" y="412"/>
      <point x="849" y="620"/>
      <point x="849" y="802" type="curve" smooth="yes"/>
      <point x="849" y="886"/>
      <point x="817" y="960"/>
      <point x="740" y="960" type="curve" smooth="yes"/>
      <point x="533" y="960"/>
      <point x="409" y="612"/>
      <point x="332" y="464" type="curve"/>
      <point x="347" y="548"/>
      <point x="396" y="748"/>
      <point x="396" y="875" type="curve" smooth="yes"/>
      <point x="396" y="926"/>
      <point x="367" y="960"/>
      <point x="326" y="960" type="curve" smooth="yes"/>
      <point x="126" y="960"/>
      <point x="114" y="417"/>
      <point x="114" y="209" type="curve" smooth="yes"/>
      <point x="114" y="99.9999"/>
      <point x="132" y="0"/>
      <point x="241" y="0" type="curve" smooth="yes"/>
      <point x="297" y="0"/>
      <point x="322" y="27"/>
      <point x="344" y="71" type="curve" smooth="yes"/>
      <point x="622" y="591" type="line"/>
      <point x="606" y="485"/>
      <point x="592" y="378"/>
      <point x="592" y="264" type="curve" smooth="yes"/>
      <point x="592" y="104"/>
      <point x="647" y="-12"/>
    </contour>
  </outline>
</glyph>
<glyph name="p_t" format="1">
  <advance width="1716"/>
  <outline>
    <contour>
      <point x="826" y="350" type="curve" smooth="yes"/>
      <point x="936" y="350"/>
      <point x="1125" y="486"/>
      <point x="1220" y="697" type="curve"/>
      <point x="1237" y="714"/>
      <point x="1245" y="738"/>
      <point x="1245" y="763" type="curve" smooth="yes"/>
      <point x="1245" y="806"/>
      <point x="1219" y="851"/>
      <point x="1185" y="851" type="curve" smooth="yes"/>
      <point x="1176" y="851"/>
      <point x="1166" y="847"/>
      <point x="1156" y="840" type="curve"/>
      <point x="1057" y="615"/>
      <point x="927" y="546"/>
      <point x="883" y="546" type="curve" smooth="yes"/>
      <point x="875" y="546"/>
      <point x="766" y="704"/>
      <point x="695" y="704" type="curve" smooth="yes"/>
      <point x="680" y="704"/>
      <point x="666" y="697"/>
      <point x="656" y="680" type="curve"/>
      <point x="619" y="610"/>
      <point x="602" y="553"/>
      <point x="602" y="508" type="curve" smooth="yes"/>
      <point x="602" y="396"/>
      <point x="687" y="350"/>
    </contour>
    <contour>
      <point x="35" y="-537" type="curve" smooth="yes"/>
      <point x="85" y="-537"/>
      <point x="138" y="-503"/>
      <point x="150" y="-428" type="curve"/>
      <point x="173" y="-339"/>
      <point x="220" y="-28"/>
      <point x="237" y="63" type="curve"/>
      <point x="294" y="11"/>
      <point x="355" y="-16"/>
      <point x="416" y="-16" type="curve" smooth="yes"/>
      <point x="710" y="-16"/>
      <point x="889" y="330"/>
      <point x="889" y="616" type="curve" smooth="yes"/>
      <point x="889" y="805"/>
      <point x="799" y="966"/>
      <point x="598" y="966" type="curve" smooth="yes"/>
      <point x="186" y="966"/>
      <point x="77" y="535"/>
      <point x="43" y="254" type="curve" smooth="yes"/>
      <point x="36" y="192"/>
      <point x="-41" y="-159"/>
      <point x="-65" y="-425" type="curve"/>
      <point x="-65" y="-429"/>
      <point x="-66" y="-433"/>
      <point x="-66" y="-437" type="curve" smooth="yes"/>
      <point x="-66" y="-501"/>
      <point x="-17" y="-537"/>
    </contour>
    <contour>
      <point x="411" y="182" type="curve" smooth="yes"/>
      <point x="364" y="182"/>
      <point x="314" y="199"/>
      <point x="261" y="239" type="curve"/>
      <point x="295" y="386"/>
      <point x="316" y="774"/>
      <point x="551" y="774" type="curve" smooth="yes"/>
      <point x="632" y="774"/>
      <point x="686" y="673"/>
      <point x="686" y="558" type="curve" smooth="yes"/>
      <point x="686" y="382"/>
      <point x="571" y="182"/>
    </contour>
    <contour>
      <point x="1232" y="636" type="line"/>
      <point x="1315" y="672"/>
      <point x="1638" y="773"/>
      <point x="1821" y="792" type="curve" smooth="yes"/>
      <point x="1911" y="801"/>
      <point x="1869" y="978.999"/>
      <point x="1768" y="965" type="curve" smooth="yes"/>
      <point x="1618" y="947"/>
      <point x="1414" y="888"/>
      <point x="1183" y="796" type="curve"/>
    </contour>
    <contour>
      <point x="1363" y="827" type="curve"/>
      <point x="1403" y="1086"/>
      <point x="1527" y="1583"/>
      <point x="1735" y="1582" type="curve"/>
      <point x="1754" y="1581"/>
      <point x="1762" y="1563"/>
      <point x="1758" y="1540" type="curve"/>
      <point x="1728" y="1276"/>
      <point x="1542" y="1022"/>
    </contour>
    <contour>
      <point x="1393" y="-9" type="curve" smooth="yes"/>
      <point x="1558" y="-9"/>
      <point x="1707" y="62"/>
      <point x="1869" y="243" type="curve" smooth="yes"/>
      <point x="1968" y="352"/>
      <point x="1825" y="450"/>
      <point x="1766" y="383" type="curve" smooth="yes"/>
      <point x="1665" y="269"/>
      <point x="1547" y="177"/>
      <point x="1442" y="177" type="curve" smooth="yes"/>
      <point x="1289" y="177"/>
      <point x="1316" y="476"/>
      <point x="1343" y="672" type="curve"/>
      <point x="1625" y="882"/>
      <point x="1896" y="1258"/>
      <point x="1924" y="1626" type="curve" smooth="yes"/>
      <point x="1933" y="1732"/>
      <point x="1889" y="1822"/>
      <point x="1772" y="1824" type="curve" smooth="yes"/>
      <point x="1396" y="1828"/>
      <point x="1164" y="1073"/>
      <point x="1117" y="635" type="curve" smooth="yes"/>
      <point x="1083" y="311"/>
      <point x="1143" y="-9"/>
    </contour>
  </outline>
</glyph>
